<svg xmlns="http://www.w3.org/2000/svg" xmlns:xlink="http://www.w3.org/1999/xlink" viewBox="0 0 8359.37 3343.75"><defs><style>.cls-1{fill:none;}.cls-2{fill:#010101;}.cls-3{clip-path:url(#clip-path);}.cls-4{fill:#00598e;}.cls-5{fill:#005891;}.cls-6{clip-path:url(#clip-path-2);}.cls-7{fill:url(#linear-gradient);}.cls-8{fill:#2b85c7;}</style><clipPath id="clip-path"><rect class="cls-1" width="8359.37" height="3343.75"/></clipPath><clipPath id="clip-path-2"><path class="cls-1" d="M1686.47,807c-67.94,10.31-133.27,29.56-195.4,59q-194.79,92.29-307.63,276.13l-.15.26h0c-65.67,106.68-104.19,235.4-104.19,369.6a697,697,0,0,0,102.89,365h0c129.64,222.43,411.11,394.26,740.31,334.32,321.92-58.63,571-335.67,581.74-678.1,4.23-134.87-27.38-261.32-95.09-378.2S2247.24,948,2128.34,884a9.8,9.8,0,0,0,3.16,3.53,633.76,633.76,0,0,1,121.26,120.79c100.93,131.43,160.45,279,171.36,445.12a606.4,606.4,0,0,1-8.91,151.71q-25.82,138-112.13,249c-66.76,86.06-150.69,150.29-250.41,193.55-118.2,51.28-241.11,68.48-368.28,44.81-145-27-263.25-99.67-355.72-214.39-81.36-99.47-125.52-227.84-125.52-366.07,0-139,41.87-266.69,124-366.4h0a588.88,588.88,0,0,1,76.63-80.36q153.54-132.51,356-144.73a569.71,569.71,0,0,1,158.85,12.61c109.35,24.34,204.88,75,285,153.25,103.26,100.73,162.3,223.45,177.38,367,5.68,54,3.08,107.75-6.34,161.25a583.88,583.88,0,0,1-85.39,217.32c-9.26,14.36-19.43,28.12-29.18,42.16l.72.46c4-4.65,8.14-9.24,12.11-14,85-101.1,127.72-218.32,132.23-349.78,1.9-55.54-3.93-110.49-15.57-164.83-16.93-79-45.59-153.59-85.07-224-47.32-84.42-107.22-158.16-185.5-216-87.33-64.55-185.47-99.58-293.74-105.72q-18.39-1-36.77-1A679.49,679.49,0,0,0,1686.47,807"/></clipPath><linearGradient id="linear-gradient" x1="585.08" y1="2944.34" x2="586.26" y2="2944.34" gradientTransform="matrix(1208.33, 0, 0, -1208.33, -705896.59, 3559272.89)" gradientUnits="userSpaceOnUse"><stop offset="0" stop-color="#005891"/><stop offset="1" stop-color="#3e424b"/></linearGradient></defs><g id="Layer_2" data-name="Layer 2"><g id="Layer_1-2" data-name="Layer 1"><polygon class="cls-2" points="3189.73 1525.31 3165.72 1525.31 3108.8 1584.4 3108.8 1525.31 3087.41 1525.31 3087.41 1640.46 3108.8 1640.46 3108.8 1610.97 3127.14 1592.2 3167.7 1640.46 3192.7 1640.46 3141.31 1576.77 3189.73 1525.31"/><g class="cls-3"><path class="cls-2" d="M3229.71,1641.61q11.67,0,19.33-4.29a23,23,0,0,0,8.3-8.16v11.3h19.42V1589q0-19.07-10.45-28.2t-29.52-9.13a75.72,75.72,0,0,0-20.33,2.72,48.09,48.09,0,0,0-16.85,8.15l8.06,15a35.72,35.72,0,0,1,12.09-6.43,47.61,47.61,0,0,1,14.55-2.29q11,0,16.45,5c3.62,3.36,5.44,8,5.44,14.06v1.32h-22.71q-13.34,0-21.38,3.46c-5.38,2.31-9.24,5.42-11.61,9.38a25.56,25.56,0,0,0-3.53,13.32,23.81,23.81,0,0,0,4,13.55,26.49,26.49,0,0,0,11.43,9.38,41.18,41.18,0,0,0,17.28,3.38m-8.89-35.44c2.42-2.23,7.14-3.36,14.15-3.36h21.23V1613a19.62,19.62,0,0,1-8.64,10.19,26.67,26.67,0,0,1-13.58,3.47q-7.91,0-12.33-3.3a10.49,10.49,0,0,1-4.45-8.88,10.94,10.94,0,0,1,3.62-8.3"/><path class="cls-2" d="M3323.65,1596q0-8.86,3-14.72a20.46,20.46,0,0,1,8.64-8.8,27.31,27.31,0,0,1,12.84-2.94c6.57,0,11.7,1.9,15.37,5.75s5.52,9.65,5.52,17.44v47.69h20.56v-50.33q0-13.34-4.77-21.79a30.37,30.37,0,0,0-13.08-12.6,42.19,42.19,0,0,0-18.83-4.1,44,44,0,0,0-20.32,4.51,31.56,31.56,0,0,0-10,8.39v-11.91h-19.57v87.83h20.56Z"/><path class="cls-2" d="M3469.89,1629.16v11.3h19.42V1589q0-19.07-10.46-28.2t-29.52-9.13a75.71,75.71,0,0,0-20.32,2.72,48.14,48.14,0,0,0-16.86,8.15l8.06,15a35.68,35.68,0,0,1,12.1-6.43,47.61,47.61,0,0,1,14.55-2.29q11,0,16.45,5c3.62,3.36,5.43,8,5.43,14.06v1.32H3446q-13.32,0-21.37,3.46c-5.38,2.32-9.24,5.42-11.61,9.39a25.5,25.5,0,0,0-3.54,13.31,23.81,23.81,0,0,0,4,13.55,26.6,26.6,0,0,0,11.43,9.38,41.21,41.21,0,0,0,17.28,3.38q11.68,0,19.34-4.29a23,23,0,0,0,8.3-8.16m-9.78-6a26.7,26.7,0,0,1-13.58,3.47q-7.91,0-12.34-3.3a10.48,10.48,0,0,1-4.44-8.87,10.94,10.94,0,0,1,3.62-8.31c2.42-2.23,7.13-3.36,14.15-3.36h21.22V1613a19.6,19.6,0,0,1-8.63,10.19"/><rect class="cls-2" x="3515.64" y="1518.41" width="20.56" height="122.05"/><path class="cls-2" d="M3605.69,1622.19q-4.35,2.64-14.06,2.64a60.57,60.57,0,0,1-30.6-8.7l-7.9,15.61c3.95,2.75,9.3,5.09,16,7a76.54,76.54,0,0,0,21.14,2.89q12.34,0,21.23-3.38a31.16,31.16,0,0,0,13.74-9.46,22.23,22.23,0,0,0,4.84-14.3c0-4.92-1-8.94-3-12a20.13,20.13,0,0,0-7.81-7.15,48.44,48.44,0,0,0-10.61-4,93.34,93.34,0,0,0-11.6-2.22,103.94,103.94,0,0,1-10.61-1.88,24.07,24.07,0,0,1-7.73-3.13,6.64,6.64,0,0,1-3-5.92c0-2.86,1.5-5.22,4.53-7.09s7.65-2.78,13.89-2.78a57.83,57.83,0,0,1,12.59,1.4,41.63,41.63,0,0,1,12.58,5.17l7.9-15.62a47.49,47.49,0,0,0-15-5.59,83.74,83.74,0,0,0-17.93-2,56.72,56.72,0,0,0-20.49,3.36,30.62,30.62,0,0,0-13.41,9.54,23.2,23.2,0,0,0-4.76,14.56c0,5.06,1,9.1,3,12.18a21.87,21.87,0,0,0,7.73,7.32,40.14,40.14,0,0,0,10.61,4.13c3.89.93,7.78,1.65,11.67,2.2s7.45,1.15,10.62,1.81a23.14,23.14,0,0,1,7.73,2.89,6.1,6.1,0,0,1,3,5.51c0,2.95-1.46,5.32-4.36,7"/><path class="cls-2" d="M3678.17,1589.14q-13.34,0-21.38,3.46c-5.38,2.32-9.24,5.42-11.61,9.39a25.49,25.49,0,0,0-3.53,13.31,23.81,23.81,0,0,0,4,13.55,26.49,26.49,0,0,0,11.43,9.38,41.16,41.16,0,0,0,17.27,3.38q11.68,0,19.34-4.29a23,23,0,0,0,8.3-8.16v11.3h19.42V1589q0-19.07-10.45-28.2t-29.52-9.13a75.72,75.72,0,0,0-20.33,2.72,48.09,48.09,0,0,0-16.85,8.15l8.06,15a35.72,35.72,0,0,1,12.09-6.43,47.61,47.61,0,0,1,14.55-2.29q11,0,16.45,5c3.62,3.36,5.44,8,5.44,14.06v1.32Zm14.07,34a26.67,26.67,0,0,1-13.58,3.47q-7.9,0-12.34-3.3a10.51,10.51,0,0,1-4.44-8.87,10.94,10.94,0,0,1,3.62-8.31c2.42-2.23,7.14-3.36,14.15-3.36h21.23V1613a19.62,19.62,0,0,1-8.64,10.19"/><path class="cls-2" d="M3792.83,1569.58c6.58,0,11.71,1.9,15.38,5.75s5.52,9.65,5.52,17.44v47.69h20.56v-50.33q0-13.34-4.77-21.79a30.44,30.44,0,0,0-13.09-12.6,42.16,42.16,0,0,0-18.83-4.1,43.94,43.94,0,0,0-20.31,4.51,31.32,31.32,0,0,0-10,8.39v-11.91h-19.58v87.83h20.57V1596c0-5.91,1-10.81,3-14.72a20.4,20.4,0,0,1,8.64-8.8,27.25,27.25,0,0,1,12.83-2.94"/><path class="cls-2" d="M3870.81,1538.13a12.75,12.75,0,0,0,9.55-3.68,12.61,12.61,0,0,0,3.61-9.14,11,11,0,0,0-3.7-8.47,13.46,13.46,0,0,0-9.46-3.38,13.1,13.1,0,0,0-9.46,3.55,12.22,12.22,0,0,0,0,17.52,12.93,12.93,0,0,0,9.46,3.6"/><rect class="cls-2" x="3860.45" y="1552.63" width="20.56" height="87.83"/><path class="cls-2" d="M3923.7,1635.78q10.93,5.82,25.58,5.83a53.14,53.14,0,0,0,20.49-3.71,38.76,38.76,0,0,0,14.88-10.59l-11-12.67a28.47,28.47,0,0,1-10.54,7.22,36.4,36.4,0,0,1-13.31,2.31,33.38,33.38,0,0,1-15.15-3.3,24,24,0,0,1-10.19-9.34,25.32,25.32,0,0,1-2.94-8.39h68.75c.09-1,.17-2,.24-3.14s.09-2.09.09-3q0-13.82-5.77-24a40.56,40.56,0,0,0-15.79-15.79,46.31,46.31,0,0,0-22.87-5.59,47.31,47.31,0,0,0-23.44,5.75,42,42,0,0,0-16.12,15.87,45.64,45.64,0,0,0-5.85,23.28,44.94,44.94,0,0,0,6,23.2,42.37,42.37,0,0,0,16.95,16m.33-55.28a23.41,23.41,0,0,1,8.88-9.13,26.08,26.08,0,0,1,13.24-3.28,25.74,25.74,0,0,1,13.08,3.28,22.84,22.84,0,0,1,11.67,18.1h-49.56a26.08,26.08,0,0,1,2.69-9"/><path class="cls-2" d="M4030.88,1597.86q0-13.5,6.9-20.3c4.61-4.57,10.8-6.83,18.59-6.83q1.15,0,2.31.09a17,17,0,0,1,2.46.38v-19.56q-12.67,0-21.14,4.6a27.57,27.57,0,0,0-10.11,10v-13.56h-19.58v87.83h20.57Z"/><path class="cls-2" d="M4096.84,1637.4a44.11,44.11,0,0,0,19.75,4.21,39.37,39.37,0,0,0,18.75-4.54,30,30,0,0,0,9.54-8.3v11.69h19.58v-87.83h-20.57V1597c0,5.83-1,10.7-3,14.67a20.48,20.48,0,0,1-8.39,8.84,25.49,25.49,0,0,1-12.58,3q-9.89,0-15.22-5.83t-5.35-17.68v-47.37h-20.56v50.18q0,13.17,4.77,21.77a30,30,0,0,0,13.32,12.82"/><path class="cls-2" d="M4260.12,1555.74a42.26,42.26,0,0,0-18.84-4.1,43.93,43.93,0,0,0-20.3,4.51,31.21,31.21,0,0,0-10,8.39v-11.91h-19.58v87.83H4212V1596c0-5.91,1-10.81,3-14.72a20.62,20.62,0,0,1,8.64-8.8,27.36,27.36,0,0,1,12.85-2.94c6.58,0,11.69,1.9,15.38,5.75s5.5,9.65,5.5,17.44v47.69H4278v-50.33q0-13.34-4.79-21.79a30.34,30.34,0,0,0-13.07-12.6"/><path class="cls-2" d="M4371.9,1564.83a32.57,32.57,0,0,0-10.34-8.76,44.7,44.7,0,0,0-20.09-4.43,48.34,48.34,0,0,0-22.61,5.26,40,40,0,0,0-16,14.8,41.73,41.73,0,0,0-5.86,22.22q0,12.84,5.86,22.37a40.49,40.49,0,0,0,16,14.87,47.43,47.43,0,0,0,22.61,5.34,43.7,43.7,0,0,0,20.09-4.51,32.84,32.84,0,0,0,9.35-7.56v5c0,8.88-2.23,15.54-6.74,20s-11.56,6.65-21.21,6.65a57.1,57.1,0,0,1-17.86-2.88,43.34,43.34,0,0,1-14.55-7.65l-9.22,15.46q7.4,6.1,19,9.3a88.72,88.72,0,0,0,23.77,3.22q23,0,35.19-11.28t12.19-35.11v-74.51H4371.9Zm-4,42.16a23.59,23.59,0,0,1-9.46,8.89,29.33,29.33,0,0,1-13.81,3.2,29.83,29.83,0,0,1-13.92-3.2,23.24,23.24,0,0,1-9.52-8.89,27,27,0,0,1,0-26.16,22.29,22.29,0,0,1,9.52-8.72,31.31,31.31,0,0,1,13.92-3,30.77,30.77,0,0,1,13.81,3,22.6,22.6,0,0,1,9.46,8.72,27.14,27.14,0,0,1,0,26.16"/><rect class="cls-2" x="4465.82" y="1518.41" width="18.93" height="153.96"/><polygon class="cls-2" points="4663.4 1525.31 4639.38 1525.31 4582.46 1584.41 4582.46 1525.31 4561.09 1525.31 4561.09 1640.46 4582.46 1640.46 4582.46 1610.98 4600.81 1592.2 4641.36 1640.46 4666.37 1640.46 4614.98 1576.76 4663.4 1525.31"/><path class="cls-2" d="M4750.44,1640.46V1589q0-19.07-10.45-28.2t-29.52-9.13a75.62,75.62,0,0,0-20.33,2.72,48.14,48.14,0,0,0-16.86,8.15l8.06,15a35.68,35.68,0,0,1,12.1-6.43,47.52,47.52,0,0,1,14.55-2.29c7.35,0,12.82,1.68,16.46,5s5.42,8,5.42,14.06v1.32h-22.7q-13.34,0-21.38,3.46c-5.39,2.32-9.24,5.42-11.61,9.39a25.41,25.41,0,0,0-3.55,13.31,23.67,23.67,0,0,0,4.05,13.55,26.52,26.52,0,0,0,11.42,9.38,41.19,41.19,0,0,0,17.27,3.38c7.79,0,14.25-1.43,19.34-4.29a23.07,23.07,0,0,0,8.31-8.16v11.3Zm-29.21-17.28a26.63,26.63,0,0,1-13.57,3.47c-5.28,0-9.38-1.1-12.35-3.3a10.52,10.52,0,0,1-4.43-8.87,11,11,0,0,1,3.61-8.31c2.42-2.23,7.15-3.36,14.16-3.36h21.22V1613a19.62,19.62,0,0,1-8.64,10.19"/><path class="cls-2" d="M4842.74,1592.77v47.69h20.55v-50.33q0-13.34-4.76-21.79a30.39,30.39,0,0,0-13.09-12.6,42.11,42.11,0,0,0-18.82-4.1,44,44,0,0,0-20.33,4.51,31.49,31.49,0,0,0-10,8.41v-11.93h-19.56v87.83h20.55V1596q0-8.86,3.05-14.72a20.29,20.29,0,0,1,8.64-8.8,27.26,27.26,0,0,1,12.82-2.94c6.58,0,11.72,1.9,15.38,5.75s5.53,9.65,5.53,17.44"/><path class="cls-2" d="M4943.57,1640.46H4963V1589q0-19.07-10.45-28.2t-29.52-9.13a75.56,75.56,0,0,0-20.33,2.72,48.28,48.28,0,0,0-16.87,8.15l8.06,15A35.73,35.73,0,0,1,4906,1571a47.52,47.52,0,0,1,14.55-2.29c7.35,0,12.82,1.68,16.45,5s5.42,8,5.42,14.06v1.32h-22.7q-13.32,0-21.37,3.46c-5.39,2.32-9.24,5.42-11.61,9.39a25.32,25.32,0,0,0-3.55,13.31,23.67,23.67,0,0,0,4,13.55,26.49,26.49,0,0,0,11.41,9.38,41.21,41.21,0,0,0,17.28,3.38c7.78,0,14.25-1.43,19.34-4.29a23.07,23.07,0,0,0,8.31-8.16Zm-9.8-17.28a26.59,26.59,0,0,1-13.56,3.47c-5.28,0-9.38-1.1-12.35-3.3a10.5,10.5,0,0,1-4.43-8.87,11,11,0,0,1,3.6-8.31c2.42-2.23,7.16-3.36,14.17-3.36h21.21V1613a19.53,19.53,0,0,1-8.64,10.19"/><rect class="cls-2" x="4989.32" y="1518.41" width="20.55" height="122.05"/><path class="cls-2" d="M5057.41,1597.86q0-13.5,6.9-20.3c4.62-4.57,10.81-6.83,18.6-6.83q1.16,0,2.31.09a16.86,16.86,0,0,1,2.45.38v-19.56q-12.67,0-21.13,4.6a27.78,27.78,0,0,0-10.13,10v-13.56h-19.56v87.83h20.56Z"/><path class="cls-2" d="M5120,1635.78q10.93,5.82,25.58,5.83a53,53,0,0,0,20.47-3.71,38.53,38.53,0,0,0,14.88-10.59l-11-12.67a28.55,28.55,0,0,1-10.54,7.22,36.44,36.44,0,0,1-13.31,2.31,33.42,33.42,0,0,1-15.16-3.3,24,24,0,0,1-10.18-9.34,25.56,25.56,0,0,1-2.95-8.39h68.76c.08-1,.16-2,.24-3.14s.09-2.09.09-3q0-13.82-5.78-24a40.49,40.49,0,0,0-15.79-15.79,46.24,46.24,0,0,0-22.86-5.59,47.31,47.31,0,0,0-23.44,5.75,42,42,0,0,0-16.12,15.87,45.54,45.54,0,0,0-5.86,23.28,44.85,44.85,0,0,0,6,23.2,42.31,42.31,0,0,0,17,16m.33-55.28a23.27,23.27,0,0,1,8.88-9.13,26,26,0,0,1,13.24-3.28,25.64,25.64,0,0,1,13.06,3.28,22.93,22.93,0,0,1,11.69,18.1h-49.57a26.31,26.31,0,0,1,2.7-9"/><path class="cls-2" d="M5217,1538.13a12.47,12.47,0,0,0,13.15-12.82,11.06,11.06,0,0,0-3.68-8.47,13.52,13.52,0,0,0-9.47-3.38,13.08,13.08,0,0,0-9.46,3.55,12.2,12.2,0,0,0,0,17.52,12.91,12.91,0,0,0,9.46,3.6"/><rect class="cls-2" x="5206.62" y="1552.63" width="20.58" height="87.83"/><path class="cls-2" d="M5299.25,1569.58c6.57,0,11.69,1.9,15.38,5.75s5.5,9.65,5.5,17.44v47.69h20.58v-50.33q0-13.34-4.79-21.79a30.34,30.34,0,0,0-13.07-12.6,42.26,42.26,0,0,0-18.84-4.1,43.93,43.93,0,0,0-20.3,4.51,31.18,31.18,0,0,0-10,8.38v-11.9h-19.59v87.83h20.58V1596c0-5.91,1-10.81,3-14.72a20.62,20.62,0,0,1,8.64-8.8,27.36,27.36,0,0,1,12.85-2.94"/><path class="cls-2" d="M5377.21,1513.46a13.15,13.15,0,0,0-9.46,3.55,12.24,12.24,0,0,0,0,17.52,13,13,0,0,0,9.46,3.6,12.72,12.72,0,0,0,9.55-3.68,12.56,12.56,0,0,0,3.63-9.14,11,11,0,0,0-3.71-8.47,13.47,13.47,0,0,0-9.47-3.38"/><rect class="cls-2" x="5366.87" y="1552.63" width="20.55" height="87.83"/><path class="cls-2" d="M5482,1564.83a32.57,32.57,0,0,0-10.34-8.76,44.69,44.69,0,0,0-20.08-4.43,48.35,48.35,0,0,0-22.62,5.26,39.88,39.88,0,0,0-15.95,14.8,41.64,41.64,0,0,0-5.86,22.22q0,12.84,5.86,22.37a40.4,40.4,0,0,0,15.95,14.87,47.44,47.44,0,0,0,22.62,5.34,43.68,43.68,0,0,0,20.08-4.51,32.84,32.84,0,0,0,9.35-7.56v5c0,8.88-2.23,15.54-6.74,20s-11.55,6.65-21.21,6.65a57.09,57.09,0,0,1-17.85-2.88,43.49,43.49,0,0,1-14.56-7.65l-9.21,15.46c4.92,4.07,11.28,7.18,19,9.3a88.67,88.67,0,0,0,23.77,3.22q23,0,35.18-11.28t12.19-35.11v-74.51H5482Zm-4,42.16a23.68,23.68,0,0,1-9.47,8.89,29.3,29.3,0,0,1-13.81,3.2,29.86,29.86,0,0,1-13.92-3.2,23.24,23.24,0,0,1-9.52-8.89,27,27,0,0,1,0-26.16,22.29,22.29,0,0,1,9.52-8.72,31.34,31.34,0,0,1,13.92-3,30.74,30.74,0,0,1,13.81,3,22.69,22.69,0,0,1,9.47,8.72,27.21,27.21,0,0,1,0,26.16"/><path class="cls-2" d="M5593.06,1597c0,5.84-1,10.7-3.05,14.67a20.48,20.48,0,0,1-8.39,8.84,25.47,25.47,0,0,1-12.58,3q-9.9,0-15.21-5.83t-5.36-17.68v-47.37h-20.55v50.18c0,8.78,1.56,16,4.76,21.77A30.06,30.06,0,0,0,5546,1637.4a44.23,44.23,0,0,0,19.75,4.21,39.48,39.48,0,0,0,18.77-4.54,29.88,29.88,0,0,0,9.54-8.31v11.7h19.56v-87.83h-20.55Z"/><path class="cls-2" d="M5709.29,1555.74a42.26,42.26,0,0,0-18.84-4.1,43.93,43.93,0,0,0-20.3,4.51,31.18,31.18,0,0,0-10,8.38v-11.9H5640.6v87.83h20.58V1596c0-5.91,1-10.81,3-14.72a20.62,20.62,0,0,1,8.64-8.8,27.36,27.36,0,0,1,12.85-2.94c6.57,0,11.69,1.9,15.38,5.75s5.5,9.65,5.5,17.44v47.69h20.58v-50.33q0-13.34-4.79-21.79a30.34,30.34,0,0,0-13.07-12.6"/><path class="cls-2" d="M5813.34,1649.43q-6.77,6.64-21.24,6.65a56.92,56.92,0,0,1-17.83-2.88,43.6,43.6,0,0,1-14.58-7.65l-9.21,15.46q7.43,6.1,19,9.3a88.65,88.65,0,0,0,23.76,3.22q23,0,35.22-11.28t12.16-35.11v-74.51h-19.56v12.23a32.52,32.52,0,0,0-10.37-8.79,44.48,44.48,0,0,0-20.06-4.43,48.54,48.54,0,0,0-22.64,5.26,40.16,40.16,0,0,0-16,14.8,41.9,41.9,0,0,0-5.83,22.22q0,12.84,5.83,22.37a40.69,40.69,0,0,0,16,14.87,47.64,47.64,0,0,0,22.64,5.34,43.48,43.48,0,0,0,20.06-4.51,32.73,32.73,0,0,0,9.38-7.59v5q0,13.32-6.74,20M5817,1607a23.21,23.21,0,0,1-9.46,8.89,29.15,29.15,0,0,1-13.81,3.2,29.74,29.74,0,0,1-13.89-3.2,23.32,23.32,0,0,1-9.55-8.89,27,27,0,0,1,0-26.16,22.37,22.37,0,0,1,9.55-8.72,31.21,31.21,0,0,1,13.89-3,30.59,30.59,0,0,1,13.81,3,22.25,22.25,0,0,1,9.46,8.72,26.93,26.93,0,0,1,0,26.16"/><rect class="cls-2" x="5914.99" y="1518.41" width="18.93" height="153.96"/><path class="cls-2" d="M6085.61,1640.46h23l-26.55-37.85c.55-.22,1.24-.3,1.79-.54a37.8,37.8,0,0,0,16.86-14q5.9-9.12,5.91-21.78t-5.91-21.87a38.24,38.24,0,0,0-16.86-14.17q-10.94-4.92-26.25-4.93h-47.37v115.15h21.37v-33.55h26c1.55,0,2.84-.3,4.32-.37Zm-7.65-91.13q7.14,5.94,7.15,17c0,7.23-2.39,12.9-7.15,16.94s-11.88,6.08-21.32,6.08h-25v-45.88h25c9.44,0,16.53,2,21.32,5.91"/><path class="cls-2" d="M6144,1635.78a48.81,48.81,0,0,0,24,5.83,49.58,49.58,0,0,0,24.26-5.83,43.15,43.15,0,0,0,16.62-16,45,45,0,0,0,6-23.2q0-13.33-6-23.36a43,43,0,0,0-16.62-15.79,50.21,50.21,0,0,0-24.26-5.75,49.43,49.43,0,0,0-24,5.75,43.25,43.25,0,0,0-16.61,15.87,45,45,0,0,0,16.61,62.52m1.49-54a24.11,24.11,0,0,1,9.27-9.46,28.89,28.89,0,0,1,26.74,0,23.53,23.53,0,0,1,9.3,9.46,33.61,33.61,0,0,1,0,29.38,23.23,23.23,0,0,1-9.3,9.51A27.19,27.19,0,0,1,6168,1624a26.51,26.51,0,0,1-13.26-3.3,23.79,23.79,0,0,1-9.27-9.51,32.83,32.83,0,0,1,0-29.38"/><path class="cls-2" d="M6295.1,1575.33c3.69,3.85,5.53,9.65,5.53,17.44v47.69h20.55v-50.33q0-13.34-4.76-21.79a30.39,30.39,0,0,0-13.09-12.6,42.11,42.11,0,0,0-18.82-4.1,44,44,0,0,0-20.33,4.51,31.77,31.77,0,0,0-9,7.1v-44.84h-20.55v122h20.55V1596q0-8.86,3.05-14.72a20.29,20.29,0,0,1,8.64-8.8,27.26,27.26,0,0,1,12.82-2.94c6.58,0,11.72,1.9,15.38,5.75"/><path class="cls-2" d="M6393.4,1570.73q1.16,0,2.31.09a17.07,17.07,0,0,1,2.45.38v-19.56q-12.67,0-21.13,4.59a27.88,27.88,0,0,0-10.13,10v-13.56h-19.56v87.83h20.55v-42.6q0-13.5,6.91-20.3c4.62-4.57,10.81-6.83,18.6-6.83"/><path class="cls-2" d="M6433.86,1637.4a44.1,44.1,0,0,0,19.76,4.21,39.24,39.24,0,0,0,18.73-4.54,29.75,29.75,0,0,0,9.55-8.29v11.68h19.58v-87.83h-20.57V1597a32.18,32.18,0,0,1-3,14.67,20.59,20.59,0,0,1-8.39,8.84,25.57,25.57,0,0,1-12.6,3q-9.86,0-15.21-5.83c-3.58-3.89-5.34-9.78-5.34-17.68v-47.37h-20.58v50.18q0,13.17,4.79,21.77a29.91,29.91,0,0,0,13.31,12.82"/><path class="cls-2" d="M6597.14,1555.74a42.08,42.08,0,0,0-18.82-4.1,44,44,0,0,0-20.33,4.51,31.7,31.7,0,0,0-10,8.4v-11.92h-19.56v87.83H6549V1596q0-8.86,3.06-14.72a20.22,20.22,0,0,1,8.63-8.8,27.26,27.26,0,0,1,12.82-2.94c6.58,0,11.72,1.9,15.38,5.75s5.53,9.65,5.53,17.44v47.69H6615v-50.33q0-13.34-4.76-21.79a30.39,30.39,0,0,0-13.09-12.6"/><path class="cls-2" d="M6643.93,1612q0,14.63,7.9,22.13t22.39,7.48a39.61,39.61,0,0,0,10.84-1.48,24.57,24.57,0,0,0,8.89-4.43L6688.2,1621a18.06,18.06,0,0,1-11.53,3.63c-3.82,0-6.82-1.16-9-3.47s-3.19-5.52-3.19-9.67v-41.79H6688v-16.45h-23.52v-20.08h-20.58v20.08h-14.47v16.45h14.47Z"/><path class="cls-2" d="M6763.05,1621.86a36.44,36.44,0,0,1-13.31,2.31,33.42,33.42,0,0,1-15.16-3.3,24,24,0,0,1-10.18-9.34,25.56,25.56,0,0,1-2.95-8.39h68.76c.08-1,.16-2,.24-3.14s.09-2.09.09-3q0-13.82-5.78-24a40.49,40.49,0,0,0-15.79-15.79,46.24,46.24,0,0,0-22.86-5.59,47.31,47.31,0,0,0-23.44,5.75,42,42,0,0,0-16.12,15.87,45.54,45.54,0,0,0-5.86,23.28,44.85,44.85,0,0,0,6,23.2,42.31,42.31,0,0,0,16.95,16q10.93,5.82,25.58,5.83a53,53,0,0,0,20.47-3.71,38.53,38.53,0,0,0,14.88-10.59l-11-12.67a28.55,28.55,0,0,1-10.54,7.22M6724,1580.5a23.23,23.23,0,0,1,8.89-9.13,26,26,0,0,1,13.23-3.28,25.7,25.7,0,0,1,13.07,3.28,23,23,0,0,1,11.68,18.1h-49.57a26.31,26.31,0,0,1,2.7-9"/><path class="cls-2" d="M6830.84,1597.86c0-9,2.28-15.76,6.9-20.3s10.79-6.83,18.57-6.83c.77,0,1.55,0,2.32.09a17.11,17.11,0,0,1,2.47.38v-19.56q-12.66,0-21.15,4.6a27.44,27.44,0,0,0-10.1,9.94v-13.55h-19.59v87.83h20.58Z"/><path class="cls-2" d="M6947.24,1555.74a42.3,42.3,0,0,0-18.85-4.1,44,44,0,0,0-20.3,4.51,31.74,31.74,0,0,0-9,7.08v-44.82h-20.58v122h20.58V1596c0-5.91,1-10.81,3-14.72a20.51,20.51,0,0,1,8.64-8.8,27.31,27.31,0,0,1,12.84-2.94c6.58,0,11.69,1.9,15.38,5.75s5.5,9.65,5.5,17.44v47.69h20.58v-50.33q0-13.34-4.79-21.79a30.32,30.32,0,0,0-13.06-12.6"/><path class="cls-2" d="M7024.79,1551.64a75.89,75.89,0,0,0-20.33,2.72,48.13,48.13,0,0,0-16.84,8.15l8.06,15a35.67,35.67,0,0,1,12.08-6.43,47.81,47.81,0,0,1,14.55-2.29c7.35,0,12.85,1.68,16.45,5s5.45,8,5.45,14.06v1.32h-22.72q-13.33,0-21.38,3.46c-5.36,2.32-9.24,5.42-11.61,9.39a25.58,25.58,0,0,0-3.52,13.31,23.87,23.87,0,0,0,4,13.55,26.57,26.57,0,0,0,11.44,9.38,41.14,41.14,0,0,0,17.28,3.38q11.67,0,19.34-4.29a23,23,0,0,0,8.28-8.15v11.29h19.42V1589c0-12.71-3.46-22.12-10.45-28.2s-16.81-9.13-29.52-9.13m10.78,71.54a26.71,26.71,0,0,1-13.59,3.47c-5.25,0-9.38-1.1-12.32-3.3a10.47,10.47,0,0,1-4.46-8.87,10.92,10.92,0,0,1,3.63-8.31c2.42-2.23,7.13-3.36,14.14-3.36h21.24V1613a19.67,19.67,0,0,1-8.64,10.19"/><rect class="cls-2" x="7091.09" y="1518.41" width="20.58" height="122.05"/><path class="cls-2" d="M7195.71,1635.7,7190,1621a18,18,0,0,1-11.53,3.63c-3.82,0-6.82-1.16-9-3.47s-3.19-5.52-3.19-9.67v-41.79h23.52v-16.45h-23.52v-20.08H7145.7v20.08h-14.47v16.45h14.47V1612q0,14.63,7.89,22.13t22.4,7.48a39.72,39.72,0,0,0,10.84-1.48,24.53,24.53,0,0,0,8.88-4.43"/><polygon class="cls-2" points="3095.14 1782.36 3071.12 1782.36 3014.2 1841.44 3014.2 1782.36 2992.81 1782.36 2992.81 1897.52 3014.2 1897.52 3014.2 1868.01 3032.55 1849.24 3073.1 1897.52 3098.11 1897.52 3046.71 1833.81 3095.14 1782.36"/><path class="cls-2" d="M3142.19,1808.69a75.43,75.43,0,0,0-20.33,2.72,48.16,48.16,0,0,0-16.85,8.14l8.06,15a35.69,35.69,0,0,1,12.1-6.44,47.91,47.91,0,0,1,14.55-2.28q11,0,16.45,5t5.43,14.06v1.32h-22.71q-13.32,0-21.37,3.47c-5.38,2.31-9.25,5.42-11.61,9.38a25.5,25.5,0,0,0-3.54,13.31,23.82,23.82,0,0,0,4,13.57,26.67,26.67,0,0,0,11.43,9.38,41.36,41.36,0,0,0,17.28,3.38q11.68,0,19.34-4.29a22.93,22.93,0,0,0,8.29-8.16v11.3h19.43V1846q0-19.07-10.46-28.2c-7-6.11-16.81-9.13-29.52-9.13m10.78,71.55a26.7,26.7,0,0,1-13.58,3.47q-7.91,0-12.34-3.31a10.47,10.47,0,0,1-4.44-8.88,11,11,0,0,1,3.61-8.31c2.43-2.23,7.14-3.35,14.16-3.35h21.22V1870a19.61,19.61,0,0,1-8.63,10.21"/><path class="cls-2" d="M3277.17,1812.78a42.16,42.16,0,0,0-18.83-4.1,43.94,43.94,0,0,0-20.31,4.52,31.19,31.19,0,0,0-10,8.39v-11.91h-19.58v87.84h20.57v-44.43c0-5.92,1-10.81,3-14.72a20.42,20.42,0,0,1,8.64-8.81,27.25,27.25,0,0,1,12.83-2.94c6.58,0,11.71,1.9,15.38,5.75s5.52,9.66,5.52,17.44v47.71H3295v-50.35q0-13.32-4.77-21.79a30.44,30.44,0,0,0-13.09-12.6"/><path class="cls-2" d="M3354.74,1808.69a75.33,75.33,0,0,0-20.33,2.72,48.08,48.08,0,0,0-16.85,8.14l8.06,15a35.74,35.74,0,0,1,12.09-6.44,48,48,0,0,1,14.56-2.28q11,0,16.45,5t5.43,14.06v1.32h-22.71q-13.33,0-21.38,3.47c-5.38,2.31-9.24,5.42-11.61,9.38a25.49,25.49,0,0,0-3.53,13.31,23.82,23.82,0,0,0,4,13.57,26.61,26.61,0,0,0,11.43,9.38,41.33,41.33,0,0,0,17.28,3.38q11.67,0,19.34-4.29a23,23,0,0,0,8.29-8.16v11.3h19.42V1846q0-19.07-10.45-28.2c-7-6.11-16.81-9.13-29.52-9.13m10.77,71.55a26.67,26.67,0,0,1-13.58,3.47c-5.26,0-9.38-1.1-12.33-3.31a10.48,10.48,0,0,1-4.45-8.88,11,11,0,0,1,3.62-8.31q3.63-3.35,14.15-3.35h21.23V1870a19.63,19.63,0,0,1-8.64,10.21"/><rect class="cls-2" x="3421.04" y="1775.45" width="20.56" height="122.06"/><rect class="cls-2" x="3464.14" y="1843.24" width="45.24" height="17.11"/><polygon class="cls-2" points="3670.73 1871.12 3632.45 1782.36 3611.04 1782.36 3609.24 1782.36 3513.32 1782.36 3513.32 1800.46 3551.49 1800.46 3551.49 1897.52 3572.87 1897.52 3572.87 1800.46 3611.04 1800.46 3611.04 1786.48 3659.58 1897.52 3680.64 1897.52 3730.82 1782.36 3709.43 1782.36 3670.73 1871.12"/><path class="cls-2" d="M3826.39,1782.36l-51.83,115.16h22.05l11.41-26.66h57.59l11.44,26.66h22.38l-52-115.16Zm-11.19,71.72,21.56-50.38,21.64,50.38Z"/><path class="cls-2" d="M3974.94,1854.08c0,5.83-1,10.7-3,14.66a20.58,20.58,0,0,1-8.39,8.86,25.53,25.53,0,0,1-12.59,3q-9.89,0-15.21-5.83c-3.58-3.91-5.35-9.8-5.35-17.69v-47.38h-20.57v50.18q0,13.17,4.77,21.79a30,30,0,0,0,13.32,12.82,44.14,44.14,0,0,0,19.75,4.21,39.34,39.34,0,0,0,18.75-4.54,29.9,29.9,0,0,0,9.55-8.3v11.69h19.57v-87.85h-20.56Z"/><path class="cls-2" d="M4056.7,1774.3q-15.12,0-23.28,8.3t-8.14,22.12v5.62h-14.47v16.45h14.47v70.73h20.57v-70.73h23.52v-16.45h-24.19v-5.29c0-4.7,1.11-8.25,3.29-10.59s5.44-3.55,9.71-3.55a21,21,0,0,1,6.1.91,16.19,16.19,0,0,1,5.25,2.72l5.6-15.48a22.13,22.13,0,0,0-8.14-3.61,44.39,44.39,0,0,0-10.29-1.15"/><path class="cls-2" d="M4152,1812.78a42.23,42.23,0,0,0-18.84-4.1,44,44,0,0,0-20.31,4.52,31.19,31.19,0,0,0-10,8.39v-11.91h-19.57v87.84h20.56v-44.43c0-5.92,1-10.81,3-14.72a20.42,20.42,0,0,1,8.64-8.81,27.25,27.25,0,0,1,12.83-2.94c6.58,0,11.71,1.9,15.38,5.75s5.52,9.66,5.52,17.44v47.71h20.56v-50.35q0-13.32-4.77-21.79a30.48,30.48,0,0,0-13.08-12.6"/><path class="cls-2" d="M4229.61,1808.69a75.22,75.22,0,0,0-20.33,2.72,48.16,48.16,0,0,0-16.85,8.14l8.06,15a35.69,35.69,0,0,1,12.1-6.44,47.77,47.77,0,0,1,14.55-2.28q11,0,16.45,5c3.6,3.36,5.42,8,5.42,14.06v1.32h-22.7q-13.32,0-21.37,3.47c-5.38,2.31-9.25,5.42-11.61,9.38a25.5,25.5,0,0,0-3.54,13.31,23.82,23.82,0,0,0,4,13.57,26.67,26.67,0,0,0,11.43,9.38,41.28,41.28,0,0,0,17.27,3.38c7.78,0,14.25-1.43,19.34-4.29a22.91,22.91,0,0,0,8.3-8.17v11.31h19.43V1846q0-19.07-10.46-28.2c-7-6.11-16.81-9.13-29.52-9.13m10.76,71.55a26.62,26.62,0,0,1-13.56,3.47c-5.28,0-9.38-1.1-12.35-3.31a10.49,10.49,0,0,1-4.43-8.88,11,11,0,0,1,3.6-8.31q3.63-3.35,14.17-3.35H4249V1870a19.54,19.54,0,0,1-8.64,10.21"/><path class="cls-2" d="M4364.58,1812.78a42.29,42.29,0,0,0-18.84-4.1,44,44,0,0,0-20.31,4.52,31.67,31.67,0,0,0-9,7.07v-44.82h-20.58v122.07h20.58v-44.43c0-5.92,1-10.81,3-14.72a20.65,20.65,0,0,1,8.64-8.81,27.33,27.33,0,0,1,12.85-2.94c6.57,0,11.69,1.9,15.38,5.75s5.5,9.66,5.5,17.44v47.71h20.58v-50.35q0-13.32-4.79-21.79a30.34,30.34,0,0,0-13.07-12.6"/><path class="cls-2" d="M4538.14,1812.78a41.19,41.19,0,0,0-18.67-4.1,43.75,43.75,0,0,0-22.87,5.92,35.17,35.17,0,0,0-10,9.28,27.15,27.15,0,0,0-8.2-9.12,37.87,37.87,0,0,0-21.46-6.08,41.3,41.3,0,0,0-19.34,4.43,29.75,29.75,0,0,0-9.46,8.25v-11.68H4408.6v87.84h20.55v-44.6q0-8.87,2.89-14.63a20,20,0,0,1,8.06-8.73,23.79,23.79,0,0,1,11.91-2.94c6.35,0,11.25,1.9,14.66,5.75s5.09,9.66,5.09,17.44v47.71h20.55v-44.6q0-8.87,2.89-14.63a20.27,20.27,0,0,1,8.06-8.73,23.91,23.91,0,0,1,11.94-2.94c6.36,0,11.23,1.9,14.64,5.75s5.09,9.66,5.09,17.44v47.71h20.57v-50.35q0-13.32-4.62-21.79a29.45,29.45,0,0,0-12.74-12.6"/><path class="cls-2" d="M4643,1814.27a46.55,46.55,0,0,0-22.89-5.59,47.31,47.31,0,0,0-23.44,5.75,42.18,42.18,0,0,0-16.12,15.88,45.82,45.82,0,0,0-5.84,23.27,45.1,45.1,0,0,0,6,23.22,42.57,42.57,0,0,0,17,16q10.93,5.82,25.58,5.83a53.41,53.41,0,0,0,20.5-3.71,38.76,38.76,0,0,0,14.88-10.59l-11-12.69a28.21,28.21,0,0,1-10.54,7.24,36.33,36.33,0,0,1-13.31,2.31,33.26,33.26,0,0,1-15.13-3.3,24,24,0,0,1-10.21-9.35,25.28,25.28,0,0,1-2.93-8.4h68.74c.11-1,.19-2,.24-3.13s.09-2.09.09-3q0-13.83-5.75-24a40.82,40.82,0,0,0-15.79-15.79m-45,23.27a23.55,23.55,0,0,1,8.88-9.13,26.2,26.2,0,0,1,13.24-3.27,25.87,25.87,0,0,1,13.09,3.27,22.79,22.79,0,0,1,11.66,18.1h-49.55a26.21,26.21,0,0,1,2.68-9"/><rect class="cls-2" x="4731.68" y="1775.45" width="18.93" height="153.98"/><path class="cls-2" d="M4912.48,1839.19a39.53,39.53,0,0,0-4.51-1.45,28.23,28.23,0,0,0,11.08-9.74q4.3-6.48,4.3-15.71a25.91,25.91,0,0,0-10.87-21.79q-10.86-8.13-31.58-8.14h-54v115.16h57.25q22.36,0,33.73-8.23t11.36-23c0-6.68-1.51-12.29-4.54-16.78a28.83,28.83,0,0,0-12.24-10.29m-33.89-40q11.17,0,17.19,4c4,2.61,6,6.63,6,12s-2,9.22-6,11.86-9.74,3.94-17.19,3.94h-30.26v-31.75Zm22.69,77.66c-4.26,2.61-10.42,3.93-18.4,3.93h-34.55V1847.5h34.55c8,0,14.14,1.35,18.4,4s6.44,6.87,6.44,12.57-2.15,10-6.44,12.68"/><path class="cls-2" d="M5011.19,1814.27a46.55,46.55,0,0,0-22.89-5.59,47.31,47.31,0,0,0-23.44,5.75,42.25,42.25,0,0,0-16.12,15.88,45.81,45.81,0,0,0-5.83,23.27,45.1,45.1,0,0,0,6,23.22,42.57,42.57,0,0,0,17,16q10.93,5.82,25.58,5.83a53.41,53.41,0,0,0,20.5-3.71,38.76,38.76,0,0,0,14.88-10.59l-11-12.69a28.13,28.13,0,0,1-10.54,7.24,36.33,36.33,0,0,1-13.31,2.31,33.29,33.29,0,0,1-15.13-3.3,24,24,0,0,1-10.21-9.35,25.28,25.28,0,0,1-2.93-8.4h68.74c.11-1,.19-2,.25-3.13s.08-2.09.08-3q0-13.83-5.75-24a40.76,40.76,0,0,0-15.79-15.79m-45,23.27a23.64,23.64,0,0,1,8.89-9.13,26.14,26.14,0,0,1,13.23-3.27,25.85,25.85,0,0,1,13.09,3.27,22.79,22.79,0,0,1,11.66,18.1H4963.5a26.21,26.21,0,0,1,2.68-9"/><path class="cls-2" d="M5072,1823.24v-13.56h-19.56v87.84H5073V1854.9q0-13.49,6.91-20.3c4.62-4.57,10.81-6.82,18.59-6.82.77,0,1.54,0,2.31.08a16.86,16.86,0,0,1,2.45.38v-19.56c-8.44,0-15.49,1.55-21.13,4.6a27.62,27.62,0,0,0-10.12,10"/><path class="cls-2" d="M5148.05,1808.69a75.54,75.54,0,0,0-20.33,2.72,48,48,0,0,0-16.83,8.14l8.06,15a35.54,35.54,0,0,1,12.07-6.44,48.12,48.12,0,0,1,14.56-2.28c7.34,0,12.84,1.67,16.45,5s5.44,8,5.44,14.06v1.32h-22.72q-13.34,0-21.37,3.47c-5.37,2.31-9.25,5.42-11.61,9.38a25.59,25.59,0,0,0-3.53,13.31,23.89,23.89,0,0,0,4,13.57,26.67,26.67,0,0,0,11.45,9.38,41.25,41.25,0,0,0,17.27,3.38c7.79,0,14.22-1.43,19.34-4.29a23,23,0,0,0,8.28-8.15v11.29H5188V1846c0-12.71-3.46-22.12-10.45-28.2s-16.81-9.13-29.52-9.13m10.79,71.55a26.73,26.73,0,0,1-13.59,3.47c-5.26,0-9.39-1.1-12.33-3.31a10.47,10.47,0,0,1-4.46-8.88,11,11,0,0,1,3.64-8.31c2.42-2.23,7.12-3.35,14.14-3.35h21.23V1870a19.7,19.7,0,0,1-8.63,10.21"/><path class="cls-2" d="M5249.9,1881.73c-3.86,0-6.83-1.16-9-3.47s-3.22-5.53-3.22-9.68v-41.79h23.52v-16.45h-23.52v-20.09h-20.55v20.09h-14.47v16.45h14.47V1869c0,9.77,2.61,17.14,7.89,22.15s12.71,7.48,22.37,7.48a39.88,39.88,0,0,0,10.87-1.48,24.77,24.77,0,0,0,8.88-4.43l-5.77-14.67a17.94,17.94,0,0,1-11.5,3.64"/><path class="cls-2" d="M5348.6,1854.08c0,5.83-1,10.7-3.05,14.66a20.53,20.53,0,0,1-8.39,8.86,25.45,25.45,0,0,1-12.57,3c-6.61,0-11.67-2-15.22-5.83s-5.36-9.8-5.36-17.69v-47.38h-20.55v50.18c0,8.78,1.57,16,4.76,21.79a30.11,30.11,0,0,0,13.31,12.82,44.23,44.23,0,0,0,19.75,4.21,39.45,39.45,0,0,0,18.77-4.54,30,30,0,0,0,9.54-8.31v11.7h19.56v-87.85H5348.6Z"/><path class="cls-2" d="M5464.81,1812.78a42.08,42.08,0,0,0-18.82-4.1,44,44,0,0,0-20.33,4.52,31.33,31.33,0,0,0-10,8.4v-11.92h-19.56v87.84h20.55v-44.43c0-5.92,1-10.81,3.06-14.72a20.24,20.24,0,0,1,8.63-8.81,27.26,27.26,0,0,1,12.82-2.94c6.58,0,11.72,1.9,15.38,5.75s5.53,9.66,5.53,17.44v47.71h20.55v-50.35q0-13.32-4.76-21.79a30.39,30.39,0,0,0-13.09-12.6"/><path class="cls-2" d="M5576.61,1821.9a32.66,32.66,0,0,0-10.37-8.79,44.48,44.48,0,0,0-20.06-4.43,48.67,48.67,0,0,0-22.64,5.26,40.14,40.14,0,0,0-15.95,14.8,41.92,41.92,0,0,0-5.84,22.23q0,12.83,5.84,22.36a40.5,40.5,0,0,0,15.95,14.89,47.75,47.75,0,0,0,22.64,5.33,43.36,43.36,0,0,0,20.06-4.51,32.53,32.53,0,0,0,9.38-7.58v5q0,13.33-6.74,20t-21.24,6.65a56.69,56.69,0,0,1-17.83-2.89,43.5,43.5,0,0,1-14.58-7.64l-9.21,15.46q7.42,6.11,19,9.3a88.66,88.66,0,0,0,23.77,3.21q23,0,35.21-11.28t12.16-35.1v-74.52h-19.56Zm-4,42.14a23.27,23.27,0,0,1-9.47,8.88,28.93,28.93,0,0,1-13.81,3.22,29.51,29.51,0,0,1-13.89-3.22,23.3,23.3,0,0,1-9.55-8.88,27,27,0,0,1,0-26.17,22.43,22.43,0,0,1,9.55-8.72,31.2,31.2,0,0,1,13.89-3,30.59,30.59,0,0,1,13.81,3,22.4,22.4,0,0,1,9.47,8.72,27,27,0,0,1,0,26.17"/><rect class="cls-2" x="5670.53" y="1775.45" width="18.93" height="153.98"/><path class="cls-2" d="M5834.63,1840.6a60.33,60.33,0,0,0-13.31-5.59c-4.9-1.43-9.8-2.72-14.75-3.88s-9.38-2.33-13.4-3.52a26.24,26.24,0,0,1-9.71-5,10.71,10.71,0,0,1-3.69-8.48,12.92,12.92,0,0,1,2.54-7.89c1.7-2.31,4.4-4.16,8.06-5.59s8.47-2.14,14.41-2.14a60.28,60.28,0,0,1,15.79,2.23,63.31,63.31,0,0,1,16,6.82l6.74-16.62a59.66,59.66,0,0,0-17.77-7.56,81.7,81.7,0,0,0-20.55-2.64q-15.81,0-26.08,4.7c-6.85,3.11-12,7.29-15.3,12.49a31.15,31.15,0,0,0-5,17.2c0,6.13,1.26,11.19,3.79,15.13a28.62,28.62,0,0,0,9.8,9.46,59.36,59.36,0,0,0,13.31,5.75c4.87,1.48,9.77,2.78,14.64,3.88s9.32,2.28,13.34,3.52a27.67,27.67,0,0,1,9.77,5.12,10.53,10.53,0,0,1,3.79,8.47,12.09,12.09,0,0,1-2.64,7.65c-1.76,2.25-4.48,4-8.22,5.33s-8.62,2-14.64,2a61.75,61.75,0,0,1-20.88-3.63,59.31,59.31,0,0,1-17.11-9l-7.4,16.59q7.21,6.11,19.56,10a85.8,85.8,0,0,0,25.83,3.88q15.81,0,26.16-4.71c6.91-3.11,12-7.29,15.38-12.49a31,31,0,0,0,5-17c0-6-1.24-11-3.69-15a27.51,27.51,0,0,0-9.71-9.38"/><path class="cls-2" d="M5893.78,1829.4a28.44,28.44,0,0,1,13.64-3.27,26.41,26.41,0,0,1,12.27,2.94,25.55,25.55,0,0,1,9.63,9.22l15.79-9.22a34.47,34.47,0,0,0-14.91-15.21,47.76,47.76,0,0,0-22.61-5.17,51.57,51.57,0,0,0-24.6,5.74,43.07,43.07,0,0,0-16.86,15.88,47.47,47.47,0,0,0,0,46.49,43.39,43.39,0,0,0,16.86,16,50.92,50.92,0,0,0,24.6,5.83,46.55,46.55,0,0,0,22.61-5.34,35.49,35.49,0,0,0,14.91-15.24l-15.79-9.21a25.15,25.15,0,0,1-9.63,9.21,26.08,26.08,0,0,1-12.27,3,28.12,28.12,0,0,1-13.64-3.3,23.49,23.49,0,0,1-9.55-9.43,33.11,33.11,0,0,1,0-29.47,23.82,23.82,0,0,1,9.55-9.46"/><path class="cls-2" d="M6030.73,1812.78a42.11,42.11,0,0,0-18.82-4.1,44,44,0,0,0-20.33,4.52,31.92,31.92,0,0,0-9,7.09v-44.84h-20.55v122.07h20.55v-44.43c0-5.92,1-10.81,3.05-14.72a20.32,20.32,0,0,1,8.64-8.81,27.23,27.23,0,0,1,12.82-2.94c6.58,0,11.72,1.9,15.38,5.75s5.53,9.66,5.53,17.44v47.71h20.55v-50.35q0-13.32-4.76-21.79a30.44,30.44,0,0,0-13.09-12.6"/><path class="cls-2" d="M6108.3,1808.69a75.22,75.22,0,0,0-20.33,2.72,48.13,48.13,0,0,0-16.86,8.14l8.06,15a35.74,35.74,0,0,1,12.11-6.44,47.77,47.77,0,0,1,14.55-2.28q11,0,16.45,5c3.6,3.36,5.42,8,5.42,14.06v1.32H6105q-13.32,0-21.37,3.47c-5.39,2.31-9.25,5.42-11.61,9.38a25.32,25.32,0,0,0-3.55,13.31,23.76,23.76,0,0,0,4,13.57,26.64,26.64,0,0,0,11.42,9.38,41.36,41.36,0,0,0,17.28,3.38c7.78,0,14.25-1.43,19.34-4.29a23,23,0,0,0,8.31-8.17v11.31h19.42V1846q0-19.07-10.46-28.2c-7-6.11-16.81-9.13-29.52-9.13m10.76,71.55a26.62,26.62,0,0,1-13.56,3.47c-5.28,0-9.38-1.1-12.35-3.31a10.49,10.49,0,0,1-4.43-8.88,11,11,0,0,1,3.6-8.31q3.63-3.35,14.17-3.35h21.21V1870a19.54,19.54,0,0,1-8.64,10.21"/><path class="cls-2" d="M6201.24,1829.4a28.56,28.56,0,0,1,13.67-3.27,26.32,26.32,0,0,1,12.24,2.94,25.34,25.34,0,0,1,9.63,9.22l15.79-9.22a34.56,34.56,0,0,0-14.88-15.21,47.77,47.77,0,0,0-22.62-5.17,51.56,51.56,0,0,0-24.59,5.74,42.87,42.87,0,0,0-16.86,15.88,47.27,47.27,0,0,0,0,46.49,43.19,43.19,0,0,0,16.86,16,50.91,50.91,0,0,0,24.59,5.83,46.56,46.56,0,0,0,22.62-5.34,35.59,35.59,0,0,0,14.88-15.24l-15.79-9.21a24.94,24.94,0,0,1-9.63,9.21,26,26,0,0,1-12.24,3,28.23,28.23,0,0,1-13.67-3.3,23.36,23.36,0,0,1-9.52-9.43,33,33,0,0,1,0-29.47,23.68,23.68,0,0,1,9.52-9.46"/><path class="cls-2" d="M6338.21,1812.78a42.3,42.3,0,0,0-18.85-4.1,44,44,0,0,0-20.3,4.52,31.71,31.71,0,0,0-9,7.07v-44.82h-20.57v122.07h20.57v-44.43c0-5.92,1-10.81,3-14.72a20.59,20.59,0,0,1,8.64-8.81,27.33,27.33,0,0,1,12.85-2.94c6.57,0,11.69,1.9,15.37,5.75s5.51,9.66,5.51,17.44v47.71h20.57v-50.35q0-13.32-4.78-21.79a30.34,30.34,0,0,0-13.07-12.6"/><path class="cls-2" d="M6417.74,1881.73c-3.85,0-6.82-1.16-9-3.47s-3.21-5.53-3.21-9.68v-41.79h23.52v-16.45h-23.52v-20.09H6385v20.09h-14.47v16.45H6385V1869q0,14.65,7.9,22.15t22.37,7.48a39.81,39.81,0,0,0,10.86-1.48,24.74,24.74,0,0,0,8.89-4.43l-5.78-14.67a17.91,17.91,0,0,1-11.5,3.64"/><path class="cls-2" d="M6508.14,1852.37a49,49,0,0,0-10.62-4,92.84,92.84,0,0,0-11.61-2.23,107,107,0,0,1-10.59-1.87,23.78,23.78,0,0,1-7.73-3.14,6.65,6.65,0,0,1-3-5.91q0-4.29,4.54-7.1c3-1.84,7.65-2.78,13.89-2.78a58.3,58.3,0,0,1,12.58,1.4,41.72,41.72,0,0,1,12.59,5.18l7.9-15.63a47.83,47.83,0,0,0-15-5.58,83.88,83.88,0,0,0-17.93-2,56.82,56.82,0,0,0-20.5,3.35,30.8,30.8,0,0,0-13.4,9.55,23.06,23.06,0,0,0-4.76,14.55c0,5.06,1,9.11,2.95,12.19a22.09,22.09,0,0,0,7.73,7.31,39.87,39.87,0,0,0,10.62,4.13c3.88.94,7.78,1.65,11.66,2.2s7.46,1.16,10.62,1.82a22.84,22.84,0,0,1,7.73,2.89,6.11,6.11,0,0,1,3,5.5c0,3-1.45,5.34-4.37,7.07s-7.59,2.64-14.06,2.64a56.5,56.5,0,0,1-16.45-2.48,55.93,55.93,0,0,1-14.14-6.24l-7.9,15.63c3.94,2.75,9.3,5.09,16,7a76.42,76.42,0,0,0,21.13,2.89q12.34,0,21.24-3.38a31.06,31.06,0,0,0,13.73-9.47,22.14,22.14,0,0,0,4.84-14.3c0-4.93-1-8.94-2.94-12a20.44,20.44,0,0,0-7.82-7.15"/><path class="cls-2" d="M6570.26,1808.69a75.22,75.22,0,0,0-20.33,2.72,48.13,48.13,0,0,0-16.86,8.14l8.06,15a35.79,35.79,0,0,1,12.1-6.44,47.81,47.81,0,0,1,14.55-2.28c7.35,0,12.82,1.67,16.46,5s5.42,8,5.42,14.06v1.32H6567q-13.34,0-21.38,3.47c-5.39,2.31-9.24,5.42-11.61,9.38a25.41,25.41,0,0,0-3.54,13.31,23.68,23.68,0,0,0,4,13.57,26.59,26.59,0,0,0,11.42,9.38,41.35,41.35,0,0,0,17.27,3.38c7.79,0,14.25-1.43,19.34-4.29a23,23,0,0,0,8.31-8.17v11.31h19.42V1846q0-19.07-10.45-28.2c-7-6.11-16.81-9.13-29.52-9.13m10.76,71.55a26.63,26.63,0,0,1-13.57,3.47c-5.28,0-9.38-1.1-12.35-3.31a10.51,10.51,0,0,1-4.43-8.88,11,11,0,0,1,3.61-8.31q3.63-3.35,14.17-3.35h21.21V1870a19.63,19.63,0,0,1-8.64,10.21"/><path class="cls-2" d="M6705.23,1812.78a42.3,42.3,0,0,0-18.85-4.1,44,44,0,0,0-20.3,4.52,31.39,31.39,0,0,0-10,8.37v-11.89h-19.59v87.84h20.58v-44.43c0-5.92,1-10.81,3-14.72a20.53,20.53,0,0,1,8.64-8.81,27.31,27.31,0,0,1,12.84-2.94c6.58,0,11.7,1.9,15.38,5.75s5.5,9.66,5.5,17.44v47.71h20.58v-50.35q0-13.32-4.79-21.79a30.32,30.32,0,0,0-13.06-12.6"/><path class="cls-2" d="M6759.59,1770.5a13.15,13.15,0,0,0-9.47,3.55,12.27,12.27,0,0,0,0,17.52,13,13,0,0,0,9.47,3.61,12.68,12.68,0,0,0,9.54-3.69,12.53,12.53,0,0,0,3.64-9.13,11,11,0,0,0-3.72-8.48,13.5,13.5,0,0,0-9.46-3.38"/><rect class="cls-2" x="6749.24" y="1809.67" width="20.55" height="87.84"/><path class="cls-2" d="M6857.8,1814.27a46.35,46.35,0,0,0-22.86-5.59,47.31,47.31,0,0,0-23.44,5.75,42,42,0,0,0-16.12,15.88,45.53,45.53,0,0,0-5.86,23.27,44.92,44.92,0,0,0,6,23.22,42.38,42.38,0,0,0,16.95,16q10.93,5.82,25.59,5.83a53.13,53.13,0,0,0,20.46-3.71,38.64,38.64,0,0,0,14.89-10.59l-11-12.69a28.41,28.41,0,0,1-10.53,7.24,36.53,36.53,0,0,1-13.32,2.31,33.42,33.42,0,0,1-15.16-3.3,24,24,0,0,1-10.18-9.35,25.53,25.53,0,0,1-2.95-8.4H6879c.08-1,.16-2,.25-3.13s.08-2.09.08-3q0-13.83-5.78-24a40.49,40.49,0,0,0-15.79-15.79m-45,23.27a23.23,23.23,0,0,1,8.89-9.13,26.06,26.06,0,0,1,13.23-3.27,25.8,25.8,0,0,1,13.07,3.27,23,23,0,0,1,11.68,18.1h-49.57a26.45,26.45,0,0,1,2.7-9"/><path class="cls-2" d="M6918.68,1823.23v-13.56h-19.59v87.85h20.58V1854.9c0-9,2.28-15.76,6.91-20.3s10.78-6.82,18.57-6.82c.77,0,1.54,0,2.31.08a15.91,15.91,0,0,1,2.47.39v-19.56q-12.66,0-21.15,4.59a27.54,27.54,0,0,0-10.1,10"/><path class="cls-2" d="M7032.68,1854.08c0,5.83-1,10.7-3.05,14.66a20.41,20.41,0,0,1-8.39,8.86,25.45,25.45,0,0,1-12.57,3c-6.61,0-11.67-2-15.22-5.83s-5.36-9.8-5.36-17.69v-47.38h-20.55v50.18c0,8.78,1.57,16,4.76,21.79a30.11,30.11,0,0,0,13.31,12.82,44.28,44.28,0,0,0,19.76,4.21,39.44,39.44,0,0,0,18.76-4.54,29.9,29.9,0,0,0,9.54-8.31v11.7h19.56v-87.85h-20.55Z"/><path class="cls-2" d="M7148.92,1812.78a42.3,42.3,0,0,0-18.85-4.1,44,44,0,0,0-20.3,4.52,31.28,31.28,0,0,0-10,8.37v-11.89h-19.59v87.84h20.58v-44.43c0-5.92,1-10.81,3-14.72a20.57,20.57,0,0,1,8.63-8.81,27.38,27.38,0,0,1,12.85-2.94c6.58,0,11.69,1.9,15.38,5.75s5.5,9.66,5.5,17.44v47.71h20.58v-50.35q0-13.32-4.79-21.79a30.32,30.32,0,0,0-13.06-12.6"/><path class="cls-2" d="M7260.69,1809.68v12.2a32.48,32.48,0,0,0-10.34-8.77,44.7,44.7,0,0,0-20.09-4.43,48.46,48.46,0,0,0-22.61,5.26,40,40,0,0,0-16,14.8,41.74,41.74,0,0,0-5.85,22.23q0,12.83,5.85,22.36a40.4,40.4,0,0,0,16,14.89,47.54,47.54,0,0,0,22.61,5.33,43.57,43.57,0,0,0,20.09-4.51,32.5,32.5,0,0,0,9.35-7.56v5c0,8.89-2.23,15.55-6.74,20s-11.55,6.65-21.21,6.65a56.81,56.81,0,0,1-17.85-2.89,43.3,43.3,0,0,1-14.56-7.64l-9.21,15.46c4.92,4.07,11.28,7.18,19,9.3a88.66,88.66,0,0,0,23.77,3.21q23,0,35.18-11.28t12.19-35.1v-74.52Zm-4,54.36a23.56,23.56,0,0,1-9.46,8.88,29.07,29.07,0,0,1-13.81,3.22,29.63,29.63,0,0,1-13.92-3.22A23.22,23.22,0,0,1,7210,1864a27,27,0,0,1,0-26.17,22.36,22.36,0,0,1,9.52-8.72,31.33,31.33,0,0,1,13.92-3,30.74,30.74,0,0,1,13.81,3,22.67,22.67,0,0,1,9.46,8.72,27.16,27.16,0,0,1,0,26.17"/><polygon class="cls-4" points="3343.72 1152.19 3253.96 1304.59 3162.7 1152.19 3127.55 1152.19 3127.55 1382.16 3168.29 1382.16 3168.29 1231.79 3243.85 1355.89 3262.91 1355.89 3338.5 1229.79 3338.8 1382.16 3379.21 1382.16 3378.88 1152.19 3343.72 1152.19"/><path class="cls-4" d="M3612.14,1265.68a74.89,74.89,0,0,0-8.85-2.84,56.79,56.79,0,0,0,22-19.5q8.53-12.94,8.54-31.36,0-27.27-21.68-43.53t-63.08-16.26H3441.3v230h114.34q44.67,0,67.34-16.42t22.67-46q0-20.06-9-33.51a57.91,57.91,0,0,0-24.47-20.55m-67.67-80q22.34,0,34.33,7.88t12,24q0,15.77-12,23.66t-34.33,7.86H3484V1185.7Zm45.33,155.06q-12.81,7.88-36.79,7.89h-69V1282.3h69q24,0,36.79,8t12.81,25.15q0,17.41-12.81,25.28"/><polygon class="cls-4" points="3986.34 1152.19 3938.38 1152.19 3824.7 1270.19 3824.7 1152.19 3781.99 1152.19 3781.99 1382.16 3824.7 1382.16 3824.7 1323.27 3861.34 1285.76 3942.32 1382.16 3992.25 1382.16 3889.62 1254.95 3986.34 1152.19"/><path class="cls-4" d="M4080.3,1204.75a151.36,151.36,0,0,0-40.58,5.42q-19.53,5.44-33.67,16.26l16.09,29.9a71.73,71.73,0,0,1,24.16-12.82,94.81,94.81,0,0,1,29.08-4.59q22,0,32.84,10c7.24,6.68,10.84,16.07,10.84,28.09v2.64h-45.33q-26.59,0-42.71,6.9t-23.17,18.74a50.91,50.91,0,0,0-7,26.6,47.53,47.53,0,0,0,8,27.1q8.05,12,22.84,18.73t34.5,6.74q23.31,0,38.59-8.55c7.36-4.11,12.51-9.84,16.6-16.35v22.59h38.77V1279.33q0-38.08-20.87-56.34t-59-18.24m21.51,142.91a53.31,53.31,0,0,1-27.09,6.91q-15.76,0-24.64-6.58a20.93,20.93,0,0,1-8.87-17.74,21.79,21.79,0,0,1,7.22-16.59q7.21-6.72,28.25-6.74h42.38v20.39a39,39,0,0,1-17.25,20.35"/><path class="cls-4" d="M4349.86,1213q-16.59-8.21-37.6-8.22-23,0-40.58,9c-8.14,4.18-14.44,10.06-19.89,16.72v-23.79H4212.7v175.43h41.07v-88.69q0-17.74,6.08-29.41a40.32,40.32,0,0,1,17.25-17.58,54,54,0,0,1,25.61-5.91q19.72,0,30.73,11.49t11,34.83v95.27h41.08V1281.64q0-26.61-9.55-43.55a60.16,60.16,0,0,0-26.11-25.12"/><path class="cls-4" d="M4504.77,1204.75a151.07,151.07,0,0,0-40.57,5.42q-19.56,5.44-33.68,16.26l16.1,29.9a71.49,71.49,0,0,1,24.15-12.82,94.72,94.72,0,0,1,29.08-4.59q22,0,32.85,10c7.23,6.68,10.84,16.07,10.84,28.09v2.64H4498.2q-26.61,0-42.72,6.9t-23.17,18.74a50.9,50.9,0,0,0-7,26.6,47.52,47.52,0,0,0,8,27.1q8.05,12,22.84,18.73t34.49,6.74q23.32,0,38.6-8.55c7.37-4.11,12.51-9.85,16.62-16.36v22.6h38.76V1279.33q0-38.08-20.88-56.34t-59-18.24m21.52,142.91a53.4,53.4,0,0,1-27.1,6.91q-15.76,0-24.65-6.58a20.92,20.92,0,0,1-8.86-17.74,21.78,21.78,0,0,1,7.21-16.59c4.81-4.48,14.25-6.74,28.25-6.74h42.4v20.39a39.21,39.21,0,0,1-17.25,20.35"/><rect class="cls-4" x="4637.16" y="1138.39" width="41.07" height="243.77"/><path class="cls-4" d="M4811.63,1350.64c-7.68,0-13.65-2.32-17.91-6.91s-6.41-11.06-6.41-19.39V1240.9h47V1208h-47V1168h-41.08V1208h-28.91v32.88h28.91v84.43q0,29.25,15.77,44.18t44.67,15a79.55,79.55,0,0,0,21.71-3,48.47,48.47,0,0,0,17.72-8.86l-11.5-29.24q-9.17,7.23-23,7.24"/><path class="cls-4" d="M4995.92,1215.92q-20.06-11.19-45.67-11.17-26.28,0-46.82,11.5a83.91,83.91,0,0,0-32.19,31.72c-7.78,13.45-11.66,29-11.66,46.46q0,26,12,46.33a84.39,84.39,0,0,0,33.84,32q21.83,11.64,51.09,11.66,23,0,40.9-7.4a77.32,77.32,0,0,0,29.74-21.18l-22-25.31a56.85,56.85,0,0,1-21,14.47,73,73,0,0,1-26.6,4.6q-17.08,0-30.24-6.58a48.14,48.14,0,0,1-20.36-18.73,51,51,0,0,1-5.87-16.76h137.29c.2-2,.36-4,.5-6.24s.16-4.16.16-5.92q0-27.6-11.5-48a80.83,80.83,0,0,0-31.55-31.55m-89.85,46.49a46.72,46.72,0,0,1,17.74-18.24q11.31-6.56,26.44-6.57a51.36,51.36,0,0,1,26.14,6.57,48.31,48.31,0,0,1,17.88,18.07c3.08,5.37,4.6,11.54,5.41,18.08h-99c.93-6.52,2.48-12.64,5.37-17.91"/><path class="cls-4" d="M5131.27,1246.15a56.55,56.55,0,0,1,27.26-6.57,52.31,52.31,0,0,1,24.49,5.91q11.34,5.9,19.23,18.41l31.52-18.41a68.91,68.91,0,0,0-29.73-30.4q-19.53-10.35-45.18-10.34-27.55,0-49.1,11.5a85.25,85.25,0,0,0-33.68,31.72q-12.16,20.17-12.16,46.46,0,26,12.16,46.33a86.12,86.12,0,0,0,33.68,32q21.49,11.64,49.1,11.66,25.64,0,45.18-10.7a70.85,70.85,0,0,0,29.73-30.37l-31.52-18.4q-7.89,12.49-19.23,18.4a52.31,52.31,0,0,1-24.49,5.91,56.55,56.55,0,0,1-27.26-6.57,47.13,47.13,0,0,1-19-18.9q-6.93-12.3-6.9-29.41c0-11.36,2.28-21.18,6.9-29.38a47.13,47.13,0,0,1,19-18.9"/><path class="cls-4" d="M5404.78,1213q-16.59-8.21-37.61-8.22-23,0-40.58,9a63.35,63.35,0,0,0-17.9,14.14v-89.55h-41.08v243.77h41.08v-88.69q0-17.74,6.08-29.41a40.35,40.35,0,0,1,17.24-17.58,54.12,54.12,0,0,1,25.62-5.91q19.72,0,30.73,11.49t11,34.83v95.27h41.07V1281.64q0-26.61-9.52-43.55a60.21,60.21,0,0,0-26.13-25.12"/><path class="cls-4" d="M5629.82,1213q-16.59-8.21-37.61-8.22-23,0-40.58,9c-8.15,4.19-14.45,10.07-19.89,16.74v-23.81h-39.09v175.43h41.07v-88.69q0-17.74,6.08-29.41a40.32,40.32,0,0,1,17.25-17.58,54.08,54.08,0,0,1,25.61-5.91q19.73,0,30.73,11.49t11,34.83v95.27h41.07V1281.64q0-26.61-9.52-43.55a60.31,60.31,0,0,0-26.13-25.12"/><path class="cls-4" d="M5738.43,1128.53q-11.52,0-18.9,7.07a24.37,24.37,0,0,0,0,35q7.38,7.25,18.9,7.23c7.86,0,14.22-2.46,19-7.4a25,25,0,0,0,7.24-18.22,22,22,0,0,0-7.4-16.92q-7.4-6.72-18.87-6.74"/><rect class="cls-4" x="5717.71" y="1206.73" width="41.07" height="175.43"/><polygon class="cls-4" points="5988.08 1206.73 5938.81 1206.73 5853.72 1285.41 5853.72 1138.39 5812.65 1138.39 5812.65 1382.16 5853.72 1382.16 5853.72 1335.92 5884.26 1307.04 5945.06 1382.16 5994.99 1382.16 5914.89 1280.23 5988.08 1206.73"/><path class="cls-4" d="M6166.16,1209a77.37,77.37,0,0,1,26.6-16.74,92.73,92.73,0,0,1,33.51-5.91,85.15,85.15,0,0,1,63.41,26.28l26.93-26.28a103.4,103.4,0,0,0-39.58-27.93q-23.49-9.53-52.71-9.53-27,0-49.63,8.71a119.79,119.79,0,0,0-39.59,24.63,110.39,110.39,0,0,0-26.11,37.64,126.09,126.09,0,0,0,0,94.61,111.44,111.44,0,0,0,25.95,37.6,117.68,117.68,0,0,0,39.25,24.65q22.53,8.71,49.47,8.7a161.32,161.32,0,0,0,48.11-7.38,126.21,126.21,0,0,0,41.9-21.84v-91.66h-40.41v71.35a81.12,81.12,0,0,1-14.31,6.67,102.12,102.12,0,0,1-33,5.41,91.46,91.46,0,0,1-33.51-5.91,76.67,76.67,0,0,1-43.52-42.7,89.18,89.18,0,0,1,0-64.73,74.93,74.93,0,0,1,17.25-25.64"/><path class="cls-4" d="M6624.65,1213q-16.26-8.21-37.31-8.22-26,0-45.66,11.83a69.8,69.8,0,0,0-19.93,18.52c-4.25-7.28-9.46-13.59-16.36-18.19q-18.24-12.18-42.89-12.16-21.66,0-38.6,8.88c-7.71,4-13.69,9.85-18.89,16.45v-23.35h-39.1v175.43H6407v-89q0-17.75,5.75-29.24a39.82,39.82,0,0,1,16.09-17.42,47.26,47.26,0,0,1,23.82-5.91q19.07,0,29.25,11.49t10.18,34.83v95.27h41.07v-89q0-17.75,5.75-29.24a39.88,39.88,0,0,1,16.09-17.42,47.3,47.3,0,0,1,23.83-5.91q19,0,29.24,11.49t10.18,34.83v95.27h41.07V1281.64q0-26.61-9.21-43.55a58.75,58.75,0,0,0-25.45-25.12"/><path class="cls-4" d="M6854.94,1215.92q-19.89-11.19-45.83-11.17a79.3,79.3,0,0,0-38.93,9.68,65.22,65.22,0,0,0-17.25,14.31v-90.35h-41.07v243.77H6751v-24.08c5.3,6.63,11.21,12.44,18.4,16.52q17.41,9.86,39.76,9.87,25.95,0,45.83-11.33a84.27,84.27,0,0,0,31.55-31.39q11.64-20,11.67-47.32c0-18.15-3.91-34-11.67-47.29a83,83,0,0,0-31.55-31.22m-5.42,107.76a47.69,47.69,0,0,1-18.57,19.06,53,53,0,0,1-26.44,6.57,53.9,53.9,0,0,1-26.6-6.57,47.38,47.38,0,0,1-18.74-19.06q-6.89-12.47-6.9-29.25c0-11.36,2.31-21.18,6.9-29.38a47.6,47.6,0,0,1,18.74-18.9,53.9,53.9,0,0,1,26.6-6.57,53,53,0,0,1,26.44,6.57,47.91,47.91,0,0,1,18.57,18.9c4.59,8.2,6.9,18,6.9,29.38q0,16.75-6.9,29.25"/><polygon class="cls-4" points="7102.81 1152.19 7102.81 1247.14 6983.88 1247.14 6983.88 1152.19 6941.18 1152.19 6941.18 1382.16 6983.88 1382.16 6983.88 1283.59 7102.81 1283.59 7102.81 1382.16 7145.53 1382.16 7145.53 1152.19 7102.81 1152.19"/><rect class="cls-2" x="2748.82" y="1004.31" width="27.24" height="1014"/><polygon class="cls-5" points="1372.26 1309.73 1372.26 1711.01 1475.26 1711.01 1475.26 1422.91 1659.78 1596.36 1941.58 1309.73 1814.31 1309.73 1656.92 1474.36 1499.57 1309.73 1372.26 1309.73"/><path class="cls-5" d="M2218.09,1534.16q-27.12-26-77.55-36.8,35.74-11.92,56.62-35.77t20.86-52.38q0-26.31-17-47.5a125.29,125.29,0,0,0-42.36-33.91q-25.41-12.72-57.58-16.72-24.37-3-67.84-3.74L1637.93,1713.4h145.23l187.79-.12q106.5-.62,134.35-2.85,44.38-3.63,74.69-19.3t47.76-41.87q17.49-26.19,17.47-53.89,0-35.19-27.13-61.21m-207.68-159.23c22,.21,36.42.59,43.13,1.14q27.86,2.48,42,14.24t14.13,30.61q0,19.68-16.35,31.73t-45,14.57q-15.81,1.4-80.91,1.44l-51.16,0ZM2111,1626.06q-19.07,12.9-49.4,16.24-19.77,2.51-93.3,2.54l-224.4.07,105.75-108.66h102.48q92.83,0,120.66,5.75t42.53,18.54q14.72,12.75,14.73,31,0,21.62-19,34.5"/></g><g class="cls-6"><rect class="cls-7" x="1079.09" y="799.2" width="1429.2" height="1472.12"/></g><g class="cls-3"><path class="cls-8" d="M1798.3,2074.64c-311.14,0-564.27-253.13-564.27-564.27S1487.16,946.1,1798.3,946.1s564.27,253.13,564.27,564.27-253.13,564.27-564.27,564.27m0-1109.22c-300.49,0-545,244.46-545,544.95s244.47,545,545,545,545-244.47,545-545S2098.79,965.42,1798.3,965.42"/></g></g></g></svg>