<svg width="1195" height="267" viewBox="0 0 1195 267" fill="none" xmlns="http://www.w3.org/2000/svg">
<path d="M427.65 135.539H423.15L412.48 146.601V135.539H408.47V157.097H412.48V151.576L415.918 148.062L423.521 157.097H428.207L418.574 145.173L427.65 135.539Z" fill="#010101"/>
<path d="M435.145 157.312C436.603 157.312 437.811 157.044 438.768 156.509C439.41 156.141 439.945 155.615 440.324 154.981V157.097H443.965V147.463C443.965 145.083 443.312 143.323 442.006 142.183C440.7 141.044 438.855 140.474 436.472 140.474C435.185 140.47 433.902 140.642 432.661 140.983C431.518 141.28 430.445 141.799 429.503 142.509L431.013 145.317C431.684 144.774 432.454 144.365 433.28 144.113C434.161 143.83 435.081 143.685 436.007 143.685C437.382 143.685 438.41 143.997 439.091 144.621C439.769 145.25 440.111 146.118 440.111 147.253V147.5H435.853C434.186 147.5 432.851 147.716 431.846 148.148C430.837 148.58 430.114 149.163 429.669 149.904C429.224 150.659 428.995 151.522 429.008 152.398C428.995 153.3 429.256 154.184 429.757 154.934C430.29 155.711 431.033 156.32 431.9 156.69C432.922 157.132 434.026 157.348 435.139 157.323M433.473 150.688C433.926 150.271 434.811 150.059 436.125 150.059H440.105V151.956C439.805 152.761 439.232 153.436 438.485 153.864C437.71 154.303 436.831 154.527 435.94 154.513C434.951 154.513 434.181 154.307 433.628 153.895C433.363 153.709 433.147 153.459 433.002 153.169C432.856 152.879 432.785 152.557 432.794 152.233C432.79 151.941 432.848 151.651 432.965 151.383C433.082 151.115 433.255 150.875 433.473 150.679" fill="#010101"/>
<path d="M452.754 148.773C452.754 147.667 452.942 146.749 453.317 146.017C453.674 145.315 454.24 144.74 454.936 144.37C455.682 143.993 456.508 143.804 457.343 143.819C458.575 143.819 459.536 144.175 460.224 144.896C460.912 145.617 461.259 146.703 461.259 148.161V157.089H465.113V147.667C465.113 146.002 464.815 144.642 464.219 143.587C463.662 142.57 462.806 141.747 461.767 141.228C460.666 140.704 459.457 140.441 458.237 140.461C456.918 140.434 455.612 140.724 454.428 141.305C453.701 141.693 453.062 142.228 452.554 142.876V140.646H448.885V157.089H452.739L452.754 148.773Z" fill="#010101"/>
<path d="M480.168 154.981V157.097H483.808V147.463C483.808 145.083 483.154 143.323 481.847 142.183C480.54 141.044 478.696 140.474 476.314 140.474C475.027 140.471 473.745 140.642 472.505 140.983C471.361 141.28 470.287 141.799 469.344 142.509L470.855 145.317C471.526 144.773 472.296 144.365 473.123 144.113C474.005 143.83 474.925 143.686 475.851 143.685C477.225 143.685 478.253 143.997 478.934 144.621C479.613 145.25 479.952 146.119 479.952 147.253V147.5H475.689C474.025 147.5 472.69 147.716 471.684 148.148C470.675 148.582 469.951 149.163 469.507 149.906C469.061 150.66 468.832 151.522 468.844 152.398C468.831 153.3 469.092 154.184 469.593 154.935C470.127 155.71 470.87 156.319 471.736 156.691C472.757 157.132 473.862 157.348 474.975 157.323C476.435 157.323 477.643 157.056 478.601 156.52C479.242 156.153 479.778 155.627 480.156 154.993M478.323 153.869C477.548 154.308 476.669 154.533 475.778 154.519C474.789 154.519 474.018 154.313 473.464 153.901C473.199 153.714 472.984 153.465 472.839 153.175C472.694 152.886 472.623 152.564 472.632 152.241C472.627 151.948 472.685 151.657 472.802 151.389C472.919 151.121 473.093 150.881 473.311 150.685C473.764 150.267 474.647 150.056 475.963 150.056H479.941V151.956C479.642 152.761 479.069 153.436 478.323 153.864" fill="#010101"/>
<path d="M492.598 134.247H488.744V157.097H492.598V134.247Z" fill="#010101"/>
<path d="M505.624 153.676C505.08 154.006 504.202 154.171 502.988 154.171C500.965 154.148 498.985 153.586 497.252 152.542L495.771 155.464C496.512 155.979 497.515 156.417 498.771 156.775C500.06 157.139 501.394 157.321 502.733 157.316C504.276 157.316 505.602 157.105 506.713 156.683C507.717 156.337 508.607 155.725 509.289 154.912C509.895 154.153 510.216 153.206 510.196 152.235C510.196 151.314 510.009 150.561 509.634 149.988C509.274 149.42 508.768 148.957 508.17 148.65C507.538 148.323 506.871 148.072 506.181 147.901C505.465 147.717 504.739 147.578 504.006 147.485C503.338 147.402 502.674 147.285 502.017 147.133C501.504 147.024 501.014 146.825 500.568 146.547C500.385 146.428 500.237 146.263 500.139 146.068C500.04 145.874 499.994 145.657 500.006 145.439C500.006 144.903 500.287 144.462 500.855 144.112C501.423 143.761 502.289 143.591 503.459 143.591C504.253 143.592 505.044 143.68 505.819 143.853C506.653 144.045 507.45 144.372 508.177 144.821L509.658 141.897C508.787 141.392 507.836 141.038 506.846 140.85C505.743 140.605 504.616 140.479 503.485 140.476C502.177 140.448 500.875 140.661 499.644 141.105C498.659 141.46 497.789 142.078 497.13 142.891C496.533 143.672 496.218 144.633 496.238 145.617C496.238 146.564 496.426 147.32 496.801 147.897C497.163 148.466 497.661 148.937 498.25 149.267C498.872 149.618 499.542 149.879 500.238 150.041C500.968 150.215 501.697 150.35 502.426 150.453C503.155 150.555 503.823 150.668 504.417 150.791C504.928 150.884 505.419 151.067 505.866 151.332C506.044 151.437 506.191 151.589 506.29 151.77C506.389 151.952 506.437 152.157 506.428 152.364C506.428 152.916 506.155 153.36 505.611 153.675" fill="#010101"/>
<path d="M519.211 147.489C517.543 147.489 516.208 147.705 515.203 148.137C514.194 148.571 513.471 149.151 513.026 149.895C512.581 150.649 512.352 151.511 512.365 152.386C512.352 153.288 512.613 154.173 513.115 154.923C513.647 155.7 514.391 156.309 515.257 156.679C516.278 157.121 517.382 157.337 518.495 157.312C519.954 157.312 521.163 157.044 522.12 156.509C522.761 156.141 523.297 155.615 523.676 154.981V157.097H527.316V147.463C527.316 145.083 526.663 143.323 525.357 142.183C524.051 141.044 522.207 140.474 519.824 140.474C518.536 140.47 517.254 140.642 516.013 140.983C514.87 141.28 513.797 141.799 512.854 142.509L514.365 145.317C515.036 144.774 515.805 144.365 516.631 144.113C517.513 143.83 518.433 143.685 519.359 143.685C520.733 143.685 521.761 143.997 522.442 144.621C523.121 145.25 523.462 146.118 523.462 147.253V147.5L519.211 147.489ZM521.848 153.854C521.073 154.294 520.194 154.518 519.302 154.504C518.315 154.504 517.544 154.298 516.989 153.886C516.724 153.699 516.51 153.45 516.365 153.16C516.219 152.87 516.148 152.549 516.157 152.225C516.152 151.933 516.21 151.642 516.327 151.374C516.444 151.106 516.618 150.865 516.836 150.67C517.289 150.252 518.174 150.041 519.488 150.041H523.468V151.956C523.168 152.761 522.595 153.436 521.848 153.864" fill="#010101"/>
<path d="M540.704 143.827C541.938 143.827 542.899 144.183 543.587 144.904C544.275 145.624 544.622 146.71 544.622 148.169V157.097H548.476V147.674C548.476 146.009 548.178 144.65 547.582 143.595C547.023 142.577 546.167 141.754 545.128 141.236C544.027 140.711 542.818 140.449 541.598 140.468C540.28 140.441 538.974 140.731 537.791 141.313C537.063 141.699 536.424 142.234 535.917 142.883V140.654H532.246V157.097H536.102V148.773C536.102 147.667 536.29 146.749 536.665 146.017C537.021 145.315 537.587 144.739 538.284 144.37C539.029 143.993 539.854 143.804 540.689 143.82" fill="#010101"/>
<path d="M555.322 137.939C555.652 137.954 555.981 137.9 556.289 137.782C556.597 137.663 556.877 137.482 557.112 137.25C557.334 137.025 557.508 136.757 557.624 136.463C557.74 136.169 557.796 135.855 557.789 135.539C557.795 135.24 557.736 134.944 557.617 134.67C557.497 134.396 557.319 134.151 557.095 133.953C556.608 133.522 555.973 133.295 555.322 133.32C554.997 133.308 554.673 133.361 554.368 133.475C554.064 133.589 553.785 133.763 553.548 133.985C553.329 134.198 553.155 134.453 553.035 134.735C552.916 135.017 552.855 135.319 552.855 135.625C552.855 135.931 552.916 136.234 553.035 136.515C553.155 136.797 553.329 137.052 553.548 137.265C553.783 137.491 554.062 137.667 554.366 137.783C554.671 137.898 554.996 137.952 555.322 137.939Z" fill="#010101"/>
<path d="M557.234 140.654H553.38V157.097H557.234V140.654Z" fill="#010101"/>
<path d="M565.236 156.221C566.602 156.947 568.201 157.311 570.031 157.312C571.345 157.336 572.65 157.1 573.872 156.618C574.947 156.188 575.903 155.508 576.662 154.635L574.6 152.263C574.052 152.857 573.377 153.319 572.624 153.615C571.827 153.913 570.98 154.06 570.129 154.047C569.147 154.067 568.174 153.855 567.289 153.429C566.494 153.046 565.83 152.438 565.379 151.681C565.104 151.194 564.917 150.662 564.828 150.11H577.715C577.732 149.923 577.747 149.735 577.76 149.522C577.773 149.309 577.777 149.131 577.777 148.96C577.777 147.236 577.417 145.738 576.695 144.467C576.005 143.225 574.98 142.2 573.736 141.511C572.421 140.799 570.944 140.439 569.448 140.465C567.915 140.438 566.401 140.809 565.055 141.541C563.794 142.237 562.749 143.264 562.033 144.512C561.284 145.841 560.906 147.346 560.936 148.871C560.911 150.393 561.299 151.894 562.061 153.214C562.819 154.489 563.92 155.527 565.238 156.209M565.3 145.86C565.686 145.148 566.262 144.556 566.965 144.151C567.723 143.73 568.579 143.518 569.447 143.537C570.304 143.52 571.15 143.732 571.898 144.151C572.514 144.492 573.036 144.98 573.417 145.571C573.799 146.163 574.029 146.839 574.086 147.539H564.796C564.86 146.952 565.031 146.381 565.3 145.855" fill="#010101"/>
<path d="M585.328 149.121C585.328 147.437 585.759 146.17 586.621 145.321C587.485 144.465 588.646 144.042 590.106 144.042C590.25 144.042 590.394 144.048 590.539 144.059C590.694 144.072 590.848 144.095 591 144.13V140.468C589.417 140.468 588.096 140.755 587.037 141.33C586.253 141.777 585.599 142.423 585.142 143.202V140.663H581.472V157.106H585.328V149.121Z" fill="#010101"/>
<path d="M597.692 156.524C598.849 157.069 600.116 157.339 601.394 157.312C602.618 157.324 603.826 157.032 604.909 156.462C605.609 156.077 606.219 155.547 606.697 154.908V157.097H610.368V140.654H606.512V148.96C606.512 150.052 606.324 150.964 605.95 151.707C605.606 152.405 605.057 152.982 604.377 153.362C603.652 153.748 602.84 153.942 602.019 153.923C600.783 153.923 599.832 153.56 599.166 152.832C598.499 152.104 598.165 151.001 598.163 149.522V140.654H594.309V150.048C594.309 151.692 594.607 153.05 595.203 154.124C595.761 155.166 596.635 156.006 597.7 156.524" fill="#010101"/>
<path d="M628.3 141.236C627.197 140.712 625.989 140.449 624.768 140.468C623.45 140.442 622.145 140.731 620.963 141.313C620.234 141.698 619.595 142.234 619.088 142.883V140.654H615.418V157.097H619.279V148.773C619.279 147.667 619.467 146.749 619.842 146.017C620.201 145.316 620.766 144.741 621.461 144.37C622.207 143.993 623.034 143.804 623.87 143.82C625.104 143.82 626.062 144.175 626.753 144.896C627.445 145.617 627.784 146.703 627.784 148.161V157.089H631.651V147.667C631.651 146.002 631.352 144.642 630.753 143.587C630.197 142.57 629.342 141.747 628.304 141.228" fill="#010101"/>
<path d="M649.253 142.938C648.73 142.261 648.069 141.703 647.315 141.298C646.141 140.733 644.852 140.449 643.549 140.468C642.077 140.448 640.622 140.786 639.311 141.453C638.073 142.082 637.035 143.041 636.311 144.224C635.563 145.481 635.182 146.922 635.213 148.384C635.213 149.986 635.579 151.382 636.311 152.572C637.037 153.757 638.075 154.72 639.311 155.356C640.619 156.035 642.075 156.378 643.549 156.355C644.854 156.378 646.145 156.088 647.315 155.511C647.982 155.151 648.576 154.671 649.068 154.096V155.032C649.068 156.694 648.65 157.941 647.804 158.776C646.959 159.611 645.637 160.021 643.828 160.021C642.691 160.02 641.561 159.838 640.481 159.482C639.488 159.183 638.562 158.697 637.753 158.05L636.025 160.944C636.95 161.705 638.137 162.286 639.586 162.685C641.037 163.087 642.536 163.289 644.042 163.288C646.916 163.288 649.115 162.584 650.639 161.176C652.162 159.768 652.924 157.577 652.924 154.603V140.654H649.253V142.938ZM648.504 150.831C648.08 151.54 647.466 152.117 646.73 152.495C645.929 152.903 645.04 153.109 644.141 153.094C643.236 153.108 642.34 152.903 641.532 152.495C640.791 152.122 640.171 151.544 639.748 150.831C639.332 150.081 639.114 149.239 639.114 148.382C639.114 147.525 639.332 146.683 639.748 145.933C640.168 145.225 640.789 144.657 641.532 144.301C642.347 143.916 643.24 143.724 644.141 143.739C645.036 143.723 645.923 143.915 646.73 144.301C647.467 144.662 648.083 145.229 648.504 145.933C648.917 146.683 649.133 147.526 649.133 148.382C649.133 149.238 648.917 150.08 648.504 150.831Z" fill="#010101"/>
<path d="M670.408 134.247H666.859V163.071H670.408V134.247Z" fill="#010101"/>
<path d="M703.896 135.539H699.394L688.724 146.603V135.539H684.718V157.097H688.724V151.578L692.163 148.062L699.765 157.097H704.453L694.82 145.171L703.896 135.539Z" fill="#010101"/>
<path d="M720.212 157.097V147.463C720.212 145.083 719.559 143.323 718.253 142.183C716.948 141.044 715.103 140.474 712.72 140.474C711.432 140.47 710.15 140.641 708.909 140.983C707.765 141.28 706.692 141.799 705.748 142.509L707.259 145.317C707.93 144.773 708.701 144.365 709.527 144.113C710.409 143.83 711.329 143.685 712.255 143.685C713.633 143.685 714.658 143.999 715.34 144.621C716.023 145.242 716.356 146.118 716.356 147.253V147.5H712.101C710.434 147.5 709.098 147.716 708.093 148.148C707.083 148.582 706.361 149.163 705.917 149.906C705.47 150.659 705.239 151.522 705.252 152.398C705.24 153.301 705.505 154.186 706.011 154.934C706.543 155.711 707.286 156.32 708.152 156.691C709.172 157.132 710.277 157.348 711.389 157.323C712.849 157.323 714.06 157.056 715.014 156.52C715.656 156.152 716.192 155.626 716.572 154.992V157.108L720.212 157.097ZM714.737 153.862C713.962 154.301 713.084 154.525 712.193 154.511C711.203 154.511 710.435 154.305 709.878 153.893C709.614 153.706 709.399 153.457 709.255 153.167C709.11 152.877 709.039 152.557 709.048 152.233C709.043 151.94 709.101 151.65 709.218 151.382C709.335 151.114 709.507 150.874 709.724 150.677C710.178 150.26 711.065 150.048 712.379 150.048H716.356V151.956C716.057 152.761 715.483 153.436 714.737 153.864" fill="#010101"/>
<path d="M737.514 148.169V157.097H741.367V147.674C741.367 146.009 741.069 144.65 740.474 143.595C739.916 142.577 739.06 141.754 738.02 141.236C736.92 140.711 735.712 140.449 734.493 140.468C733.173 140.441 731.866 140.731 730.682 141.313C729.953 141.701 729.315 142.237 728.807 142.887V140.654H725.141V157.097H728.993V148.773C728.993 147.667 729.183 146.749 729.564 146.017C729.92 145.314 730.486 144.738 731.184 144.37C731.928 143.993 732.753 143.804 733.587 143.82C734.821 143.82 735.784 144.175 736.47 144.896C737.156 145.617 737.507 146.703 737.507 148.161" fill="#010101"/>
<path d="M756.415 157.097H760.058V147.463C760.058 145.083 759.405 143.323 758.099 142.183C756.793 141.044 754.948 140.474 752.565 140.474C751.277 140.47 749.995 140.641 748.754 140.983C747.61 141.281 746.536 141.799 745.592 142.509L747.103 145.317C747.773 144.766 748.544 144.35 749.373 144.093C750.254 143.809 751.174 143.665 752.1 143.664C753.478 143.664 754.503 143.979 755.184 144.6C755.864 145.222 756.2 146.098 756.2 147.232V147.48H751.945C750.28 147.48 748.945 147.695 747.939 148.127C746.928 148.562 746.207 149.142 745.762 149.885C745.314 150.638 745.084 151.501 745.097 152.377C745.082 153.279 745.344 154.164 745.847 154.914C746.379 155.69 747.12 156.299 747.986 156.67C749.007 157.111 750.112 157.327 751.225 157.303C752.683 157.303 753.896 157.035 754.85 156.5C755.492 156.132 756.028 155.606 756.408 154.972L756.415 157.097ZM754.578 153.862C753.804 154.301 752.927 154.525 752.036 154.511C751.047 154.511 750.278 154.305 749.721 153.894C749.457 153.706 749.242 153.457 749.098 153.167C748.953 152.878 748.882 152.557 748.891 152.233C748.886 151.941 748.944 151.651 749.061 151.382C749.177 151.114 749.349 150.874 749.566 150.677C750.019 150.26 750.908 150.048 752.222 150.048H756.198V151.956C755.899 152.762 755.326 153.438 754.578 153.864" fill="#010101"/>
<path d="M768.844 134.247H764.991V157.097H768.844V134.247Z" fill="#010101"/>
<path d="M777.755 149.121C777.755 147.437 778.186 146.17 779.049 145.321C779.915 144.465 781.075 144.042 782.535 144.042C782.68 144.042 782.825 144.048 782.968 144.059C783.123 144.072 783.276 144.095 783.428 144.13V140.468C781.844 140.468 780.524 140.755 779.467 141.33C778.682 141.778 778.027 142.424 777.568 143.202V140.663H773.901V157.106H777.755V149.121Z" fill="#010101"/>
<path d="M789.488 156.221C790.854 156.947 792.452 157.311 794.283 157.312C795.595 157.336 796.9 157.1 798.12 156.618C799.196 156.189 800.152 155.509 800.91 154.635L798.848 152.263C798.3 152.857 797.624 153.319 796.872 153.615C796.074 153.913 795.228 154.059 794.377 154.047C793.394 154.067 792.421 153.855 791.535 153.429C790.741 153.046 790.077 152.438 789.627 151.681C789.352 151.193 789.165 150.662 789.074 150.11H801.963C801.978 149.923 801.993 149.735 802.008 149.522C802.023 149.309 802.025 149.131 802.025 148.96C802.025 147.236 801.664 145.738 800.941 144.467C800.252 143.224 799.226 142.2 797.981 141.511C796.667 140.799 795.191 140.438 793.696 140.465C792.163 140.438 790.649 140.809 789.302 141.541C788.042 142.237 786.997 143.264 786.281 144.512C785.531 145.841 785.151 147.346 785.182 148.871C785.156 150.393 785.544 151.895 786.307 153.214C787.067 154.491 788.171 155.529 789.493 156.209M789.555 145.86C789.94 145.147 790.517 144.555 791.22 144.151C791.978 143.729 792.835 143.517 793.702 143.537C794.558 143.52 795.403 143.732 796.15 144.151C796.765 144.493 797.287 144.981 797.669 145.572C798.051 146.163 798.282 146.839 798.341 147.539H789.049C789.115 146.952 789.287 146.381 789.555 145.855" fill="#010101"/>
<path d="M807.671 137.939C807.994 137.957 808.317 137.907 808.62 137.794C808.923 137.68 809.199 137.505 809.431 137.28C809.663 137.054 809.845 136.783 809.967 136.483C810.088 136.184 810.146 135.862 810.136 135.539C810.142 135.241 810.084 134.944 809.965 134.671C809.846 134.397 809.669 134.152 809.446 133.953C808.958 133.522 808.322 133.296 807.671 133.32C807.346 133.308 807.022 133.361 806.718 133.475C806.413 133.589 806.134 133.762 805.898 133.985C805.678 134.198 805.503 134.453 805.383 134.735C805.264 135.016 805.203 135.319 805.203 135.625C805.203 135.931 805.264 136.234 805.383 136.516C805.503 136.797 805.678 137.052 805.898 137.265C806.133 137.491 806.411 137.667 806.715 137.783C807.02 137.899 807.345 137.952 807.671 137.939Z" fill="#010101"/>
<path d="M809.583 140.654H805.725V157.097H809.583V140.654Z" fill="#010101"/>
<path d="M823.089 143.827C824.321 143.827 825.28 144.183 825.972 144.903C826.664 145.624 827.003 146.71 827.003 148.169V157.097H830.861V147.674C830.861 146.009 830.562 144.649 829.963 143.595C829.407 142.577 828.552 141.754 827.513 141.236C826.411 140.712 825.202 140.449 823.981 140.468C822.663 140.442 821.359 140.731 820.176 141.313C819.447 141.698 818.809 142.232 818.301 142.882V140.654H814.629V157.097H818.487V148.773C818.487 147.667 818.675 146.749 819.049 146.017C819.408 145.316 819.973 144.741 820.669 144.37C821.415 143.993 822.242 143.804 823.078 143.82" fill="#010101"/>
<path d="M837.703 133.32C837.378 133.309 837.054 133.362 836.75 133.476C836.446 133.59 836.167 133.763 835.93 133.985C835.711 134.199 835.537 134.454 835.418 134.735C835.299 135.017 835.238 135.319 835.238 135.625C835.238 135.931 835.299 136.233 835.418 136.515C835.537 136.797 835.711 137.052 835.93 137.265C836.165 137.49 836.443 137.666 836.748 137.782C837.053 137.897 837.377 137.951 837.703 137.939C838.033 137.954 838.362 137.901 838.671 137.782C838.979 137.664 839.259 137.482 839.493 137.25C839.716 137.025 839.891 136.758 840.008 136.464C840.125 136.17 840.181 135.855 840.174 135.539C840.18 135.24 840.121 134.943 840.001 134.67C839.881 134.396 839.702 134.151 839.478 133.953C838.99 133.521 838.354 133.295 837.703 133.32Z" fill="#010101"/>
<path d="M839.617 140.654H835.765V157.097H839.617V140.654Z" fill="#010101"/>
<path d="M857.346 142.938C856.823 142.261 856.162 141.703 855.408 141.298C854.235 140.733 852.946 140.449 851.644 140.468C850.172 140.448 848.716 140.786 847.404 141.453C846.169 142.082 845.134 143.041 844.414 144.224C843.664 145.48 843.284 146.922 843.315 148.384C843.315 149.986 843.682 151.382 844.414 152.572C845.136 153.756 846.171 154.719 847.404 155.356C848.712 156.035 850.17 156.378 851.644 156.355C852.948 156.377 854.239 156.088 855.408 155.511C856.075 155.151 856.669 154.671 857.161 154.096V155.032C857.161 156.694 856.743 157.941 855.897 158.776C855.052 159.611 853.732 160.021 851.921 160.021C850.785 160.02 849.655 159.838 848.575 159.482C847.583 159.182 846.656 158.696 845.846 158.05L844.12 160.944C845.042 161.706 846.234 162.288 847.681 162.685C849.132 163.087 850.631 163.29 852.137 163.288C855.011 163.288 857.21 162.584 858.732 161.176C860.254 159.768 861.016 157.577 861.017 154.603V140.654H857.346V142.938ZM856.597 150.831C856.172 151.54 855.557 152.116 854.821 152.495C854.021 152.903 853.132 153.109 852.233 153.094C851.327 153.108 850.432 152.903 849.623 152.495C848.882 152.121 848.263 151.544 847.839 150.831C847.423 150.081 847.205 149.239 847.205 148.382C847.205 147.525 847.423 146.683 847.839 145.933C848.259 145.225 848.88 144.657 849.623 144.301C850.438 143.916 851.331 143.724 852.233 143.739C853.128 143.723 854.014 143.915 854.821 144.301C855.558 144.662 856.175 145.229 856.597 145.933C857.009 146.684 857.225 147.526 857.225 148.382C857.225 149.238 857.009 150.08 856.597 150.831Z" fill="#010101"/>
<path d="M878.165 148.96C878.165 150.054 877.978 150.964 877.593 151.707C877.249 152.405 876.701 152.982 876.021 153.362C875.296 153.749 874.484 153.942 873.662 153.923C872.425 153.923 871.475 153.56 870.811 152.832C870.148 152.104 869.813 151.001 869.807 149.522V140.654H865.954V150.048C865.954 151.692 866.247 153.044 866.847 154.124C867.406 155.166 868.279 156.006 869.344 156.524C870.5 157.068 871.767 157.338 873.046 157.312C874.271 157.324 875.48 157.032 876.564 156.462C877.265 156.077 877.875 155.546 878.353 154.906V157.097H882.019V140.654H878.167L878.165 148.96Z" fill="#010101"/>
<path d="M899.953 141.236C898.851 140.712 897.642 140.449 896.421 140.468C895.103 140.442 893.798 140.731 892.616 141.313C891.887 141.698 891.248 142.232 890.741 142.882V140.654H887.077V157.097H890.934V148.773C890.934 147.667 891.122 146.749 891.497 146.017C891.856 145.316 892.421 144.741 893.116 144.37C893.862 143.993 894.689 143.804 895.525 143.82C896.757 143.82 897.716 144.175 898.408 144.896C899.1 145.617 899.439 146.703 899.439 148.161V157.089H903.297V147.667C903.297 146.002 902.998 144.642 902.399 143.587C901.843 142.57 900.988 141.747 899.949 141.228" fill="#010101"/>
<path d="M919.457 158.776C918.611 159.605 917.284 160.02 915.476 160.021C914.34 160.02 913.212 159.838 912.134 159.482C911.14 159.182 910.212 158.696 909.401 158.05L907.674 160.944C908.603 161.705 909.79 162.286 911.236 162.685C912.686 163.087 914.185 163.289 915.69 163.288C918.564 163.288 920.765 162.584 922.292 161.176C923.819 159.768 924.579 157.577 924.571 154.603V140.654H920.905V142.943C920.38 142.264 919.717 141.703 918.961 141.298C917.789 140.732 916.501 140.448 915.2 140.468C913.727 140.448 912.27 140.786 910.956 141.453C909.72 142.083 908.682 143.042 907.957 144.224C907.212 145.482 906.833 146.923 906.864 148.384C906.864 149.986 907.229 151.382 907.957 152.572C908.684 153.755 909.721 154.718 910.956 155.356C912.267 156.034 913.725 156.377 915.2 156.355C916.503 156.378 917.793 156.089 918.961 155.511C919.63 155.15 920.226 154.668 920.719 154.09V155.026C920.719 156.689 920.298 157.937 919.456 158.77M920.144 150.833C919.723 151.544 919.108 152.122 918.37 152.497C917.57 152.906 916.681 153.112 915.781 153.096C914.878 153.11 913.984 152.904 913.178 152.497C912.435 152.124 911.814 151.546 911.388 150.833C910.972 150.083 910.754 149.24 910.754 148.384C910.754 147.527 910.972 146.684 911.388 145.935C911.81 145.227 912.433 144.659 913.178 144.302C913.991 143.918 914.882 143.726 915.781 143.741C916.676 143.724 917.563 143.916 918.37 144.302C919.109 144.66 919.726 145.228 920.144 145.935C920.56 146.684 920.779 147.527 920.779 148.384C920.779 149.241 920.56 150.083 920.144 150.833Z" fill="#010101"/>
<path d="M942.061 134.247H938.512V163.071H942.061V134.247Z" fill="#010101"/>
<path d="M970.496 157.097H974.807L969.83 150.011C969.933 149.97 970.063 149.955 970.166 149.91C971.455 149.367 972.555 148.455 973.326 147.289C974.064 146.15 974.433 144.791 974.434 143.211C974.435 141.631 974.066 140.266 973.326 139.117C972.556 137.942 971.457 137.019 970.166 136.464C968.799 135.85 967.158 135.542 965.245 135.541H956.365V157.099H960.371V150.818H965.245C965.536 150.818 965.777 150.761 966.055 150.748L970.496 157.097ZM969.062 140.036C969.954 140.777 970.401 141.838 970.402 143.219C970.402 144.572 969.954 145.634 969.062 146.39C968.169 147.146 966.835 147.528 965.065 147.528H960.379V138.939H965.065C966.835 138.939 968.164 139.313 969.062 140.045" fill="#010101"/>
<path d="M981.441 156.221C982.822 156.964 984.372 157.339 985.94 157.312C987.524 157.341 989.09 156.966 990.488 156.221C991.779 155.523 992.856 154.488 993.603 153.225C994.364 151.905 994.753 150.404 994.728 148.882C994.728 147.218 994.353 145.76 993.603 144.508C992.852 143.26 991.775 142.238 990.488 141.552C989.086 140.817 987.522 140.447 985.94 140.476C984.373 140.449 982.826 140.819 981.441 141.552C980.154 142.244 979.078 143.271 978.328 144.523C977.744 145.491 977.361 146.566 977.201 147.685C977.042 148.804 977.109 149.943 977.4 151.035C977.69 152.127 978.198 153.149 978.892 154.042C979.586 154.934 980.453 155.677 981.441 156.228M981.72 146.118C982.123 145.378 982.725 144.764 983.458 144.347C984.232 143.944 985.092 143.733 985.964 143.733C986.837 143.733 987.697 143.944 988.471 144.347C989.21 144.759 989.815 145.373 990.214 146.118C990.631 146.975 990.848 147.916 990.848 148.869C990.848 149.821 990.631 150.762 990.214 151.619C989.819 152.369 989.213 152.988 988.471 153.399C987.695 153.82 986.823 154.032 985.94 154.015C985.072 154.03 984.215 153.817 983.454 153.397C982.718 152.981 982.115 152.363 981.717 151.617C981.289 150.763 981.066 149.822 981.066 148.867C981.066 147.912 981.289 146.97 981.717 146.117" fill="#010101"/>
<path d="M1009.77 144.903C1010.46 145.624 1010.8 146.71 1010.8 148.168V157.097H1014.65V147.674C1014.65 146.009 1014.36 144.649 1013.76 143.595C1013.2 142.577 1012.35 141.754 1011.31 141.236C1010.21 140.711 1009 140.449 1007.78 140.468C1006.46 140.441 1005.15 140.731 1003.97 141.313C1003.33 141.65 1002.76 142.1 1002.28 142.642V134.247H998.43V157.087H1002.28V148.773C1002.28 147.667 1002.47 146.749 1002.85 146.017C1003.21 145.314 1003.78 144.738 1004.47 144.37C1005.22 143.993 1006.04 143.804 1006.88 143.819C1008.11 143.819 1009.07 144.175 1009.76 144.896" fill="#010101"/>
<path d="M1028.19 144.042C1028.34 144.042 1028.48 144.048 1028.63 144.059C1028.78 144.072 1028.93 144.095 1029.08 144.13V140.468C1027.5 140.468 1026.18 140.755 1025.12 141.328C1024.34 141.777 1023.68 142.422 1023.22 143.2V140.661H1019.56V157.104H1023.41V149.129C1023.41 147.444 1023.84 146.177 1024.71 145.328C1025.57 144.473 1026.73 144.05 1028.19 144.05" fill="#010101"/>
<path d="M1035.78 156.524C1036.93 157.069 1038.2 157.339 1039.48 157.312C1040.7 157.325 1041.91 157.033 1042.99 156.462C1043.69 156.079 1044.3 155.55 1044.78 154.91V157.097H1048.45V140.654H1044.6V148.96C1044.63 149.907 1044.44 150.848 1044.03 151.707C1043.69 152.404 1043.14 152.981 1042.46 153.362C1041.74 153.748 1040.92 153.942 1040.1 153.923C1038.87 153.923 1037.92 153.56 1037.25 152.832C1036.58 152.104 1036.25 151.001 1036.25 149.522V140.654H1032.39V150.048C1032.39 151.692 1032.69 153.05 1033.29 154.124C1033.84 155.167 1034.72 156.007 1035.78 156.524" fill="#010101"/>
<path d="M1066.38 141.236C1065.28 140.711 1064.08 140.448 1062.86 140.468C1061.54 140.441 1060.23 140.731 1059.05 141.313C1058.32 141.701 1057.68 142.237 1057.17 142.885V140.654H1053.5V157.097H1057.36V148.773C1057.36 147.667 1057.55 146.749 1057.93 146.017C1058.29 145.314 1058.85 144.738 1059.55 144.37C1060.3 143.993 1061.12 143.804 1061.95 143.82C1063.19 143.82 1064.15 144.175 1064.84 144.896C1065.52 145.617 1065.87 146.703 1065.87 148.161V157.089H1069.73V147.667C1069.73 146.002 1069.43 144.642 1068.84 143.587C1068.28 142.57 1067.43 141.747 1066.39 141.229" fill="#010101"/>
<path d="M1075.16 151.769C1075.16 153.595 1075.65 154.976 1076.64 155.912C1077.62 156.848 1079.02 157.315 1080.83 157.312C1081.52 157.314 1082.2 157.221 1082.87 157.035C1083.47 156.875 1084.04 156.593 1084.53 156.206L1083.45 153.454C1082.83 153.921 1082.07 154.161 1081.29 154.133C1080.58 154.133 1080.01 153.916 1079.61 153.484C1079.2 153.051 1079.01 152.45 1079.01 151.673V143.849H1083.42V140.77H1079.01V137.01H1075.15V140.77H1072.44V143.849H1075.15L1075.16 151.769Z" fill="#010101"/>
<path d="M1097.48 153.615C1096.69 153.913 1095.84 154.059 1094.99 154.047C1094.01 154.067 1093.03 153.855 1092.15 153.429C1091.35 153.046 1090.69 152.438 1090.24 151.681C1089.96 151.193 1089.78 150.662 1089.69 150.11H1102.58C1102.59 149.923 1102.61 149.735 1102.62 149.522C1102.64 149.309 1102.64 149.131 1102.64 148.96C1102.64 147.236 1102.28 145.738 1101.55 144.467C1100.86 143.224 1099.84 142.2 1098.59 141.511C1097.28 140.799 1095.8 140.438 1094.31 140.465C1092.78 140.438 1091.26 140.809 1089.92 141.541C1088.65 142.237 1087.61 143.264 1086.89 144.512C1086.14 145.841 1085.76 147.346 1085.8 148.871C1085.77 150.393 1086.16 151.895 1086.92 153.214C1087.68 154.49 1088.78 155.528 1090.1 156.209C1091.46 156.936 1093.06 157.3 1094.89 157.301C1096.2 157.325 1097.51 157.089 1098.73 156.606C1099.8 156.178 1100.76 155.498 1101.52 154.624L1099.46 152.252C1098.91 152.845 1098.23 153.308 1097.48 153.603M1090.16 145.871C1090.55 145.158 1091.13 144.566 1091.83 144.162C1092.59 143.741 1093.44 143.529 1094.31 143.548C1095.17 143.531 1096.01 143.743 1096.76 144.162C1097.38 144.506 1097.9 144.994 1098.28 145.585C1098.66 146.175 1098.89 146.85 1098.95 147.551H1089.66C1089.72 146.963 1089.9 146.393 1090.16 145.866" fill="#010101"/>
<path d="M1110.19 149.121C1110.19 147.437 1110.62 146.171 1111.49 145.321C1112.35 144.471 1113.51 144.042 1114.97 144.042C1115.11 144.042 1115.26 144.042 1115.4 144.059C1115.56 144.072 1115.71 144.095 1115.86 144.13V140.468C1114.28 140.468 1112.96 140.755 1111.9 141.33C1111.12 141.774 1110.46 142.415 1110.01 143.19V140.654H1106.33V157.097H1110.19V149.121Z" fill="#010101"/>
<path d="M1132.01 141.236C1130.91 140.712 1129.7 140.449 1128.48 140.468C1127.16 140.442 1125.86 140.732 1124.67 141.313C1124.03 141.649 1123.46 142.098 1122.99 142.638V134.247H1119.13V157.087H1122.99V148.773C1122.99 147.667 1123.17 146.749 1123.55 146.017C1123.91 145.315 1124.47 144.74 1125.17 144.37C1125.91 143.993 1126.74 143.804 1127.57 143.819C1128.81 143.819 1129.77 144.175 1130.46 144.896C1131.15 145.617 1131.49 146.703 1131.49 148.161V157.089H1135.35V147.667C1135.35 146.002 1135.05 144.642 1134.45 143.587C1133.89 142.57 1133.04 141.747 1132 141.228" fill="#010101"/>
<path d="M1146.55 140.468C1145.26 140.465 1143.98 140.636 1142.74 140.978C1141.6 141.275 1140.52 141.793 1139.58 142.503L1141.09 145.312C1141.76 144.768 1142.53 144.359 1143.36 144.108C1144.24 143.825 1145.16 143.68 1146.08 143.679C1147.46 143.679 1148.49 143.994 1149.17 144.615C1149.84 145.237 1150.19 146.113 1150.19 147.247V147.494H1145.93C1144.26 147.494 1142.93 147.71 1141.92 148.142C1140.92 148.577 1140.19 149.157 1139.75 149.9C1139.3 150.655 1139.07 151.517 1139.09 152.392C1139.07 153.294 1139.34 154.178 1139.84 154.929C1140.37 155.705 1141.11 156.314 1141.98 156.685C1143 157.127 1144.11 157.343 1145.22 157.318C1146.68 157.318 1147.89 157.05 1148.85 156.514C1149.48 156.147 1150.02 155.622 1150.4 154.989V157.102H1154.04V147.463C1154.04 145.083 1153.39 143.321 1152.08 142.183C1150.77 141.045 1148.93 140.474 1146.55 140.474M1148.57 153.867C1147.79 154.307 1146.91 154.531 1146.02 154.517C1145.03 154.517 1144.26 154.311 1143.71 153.899C1143.44 153.713 1143.23 153.464 1143.08 153.174C1142.94 152.884 1142.86 152.563 1142.87 152.239C1142.87 151.946 1142.93 151.655 1143.04 151.387C1143.16 151.118 1143.34 150.878 1143.55 150.683C1144.01 150.265 1144.89 150.054 1146.2 150.054H1150.19V151.956C1149.89 152.761 1149.31 153.436 1148.57 153.864" fill="#010101"/>
<path d="M1162.84 134.247H1158.98V157.097H1162.84V134.247Z" fill="#010101"/>
<path d="M1178.59 156.206L1177.52 153.454C1176.9 153.922 1176.13 154.162 1175.36 154.133C1174.64 154.133 1174.08 153.916 1173.67 153.484C1173.26 153.051 1173.07 152.45 1173.07 151.673V143.849H1177.48V140.77H1173.07V137.01H1169.21V140.77H1166.5V143.849H1169.21V151.769C1169.21 153.595 1169.71 154.976 1170.69 155.912C1171.68 156.848 1173.08 157.315 1174.89 157.312C1175.58 157.314 1176.26 157.221 1176.92 157.035C1177.53 156.875 1178.1 156.592 1178.59 156.206Z" fill="#010101"/>
<path d="M409.919 183.663H405.416L394.747 194.723V183.663H390.737V205.222H394.747V199.698L398.186 196.184L405.788 205.222H410.476L400.841 193.295L409.919 183.663Z" fill="#010101"/>
<path d="M418.739 188.592C417.451 188.588 416.169 188.759 414.928 189.101C413.785 189.398 412.712 189.916 411.769 190.625L413.28 193.433C413.951 192.889 414.721 192.479 415.548 192.228C416.43 191.946 417.35 191.802 418.276 191.801C419.65 191.801 420.678 192.113 421.359 192.737C422.041 193.361 422.38 194.238 422.377 195.369V195.616H418.12C416.456 195.616 415.12 195.833 414.114 196.266C413.106 196.698 412.38 197.281 411.938 198.022C411.492 198.776 411.263 199.638 411.274 200.514C411.261 201.417 411.522 202.303 412.024 203.054C412.558 203.83 413.301 204.438 414.167 204.81C415.189 205.251 416.293 205.467 417.406 205.443C418.866 205.443 420.074 205.175 421.031 204.64C421.672 204.273 422.207 203.747 422.585 203.112V205.228H426.228V195.577C426.228 193.197 425.574 191.437 424.267 190.298C422.955 189.154 421.116 188.588 418.733 188.588M420.754 201.983C419.978 202.423 419.1 202.647 418.208 202.633C417.22 202.633 416.449 202.427 415.895 202.013C415.63 201.827 415.414 201.577 415.269 201.287C415.124 200.997 415.053 200.675 415.063 200.351C415.059 200.059 415.117 199.769 415.233 199.5C415.35 199.232 415.523 198.992 415.74 198.795C416.195 198.378 417.078 198.168 418.394 198.168H422.372V200.07C422.073 200.877 421.501 201.553 420.754 201.982" fill="#010101"/>
<path d="M444.041 189.358C442.94 188.833 441.732 188.57 440.512 188.59C439.193 188.564 437.887 188.854 436.704 189.436C435.976 189.822 435.337 190.357 434.83 191.007V188.777H431.16V205.222H435.015V196.904C435.015 195.796 435.203 194.881 435.578 194.149C435.934 193.445 436.5 192.869 437.197 192.499C437.942 192.122 438.768 191.933 439.602 191.949C440.836 191.949 441.798 192.304 442.486 193.025C443.174 193.746 443.52 194.834 443.52 196.29V205.222H447.384V195.796C447.384 194.134 447.086 192.774 446.49 191.717C445.931 190.699 445.075 189.876 444.036 189.358" fill="#010101"/>
<path d="M458.582 188.592C457.295 188.587 456.012 188.759 454.771 189.101C453.629 189.398 452.555 189.915 451.613 190.625L453.124 193.433C453.794 192.889 454.564 192.48 455.39 192.228C456.272 191.946 457.193 191.802 458.119 191.801C459.494 191.801 460.522 192.113 461.203 192.737C461.884 193.361 462.223 194.238 462.221 195.369V195.616H457.964C456.298 195.616 454.962 195.833 453.956 196.266C452.947 196.698 452.224 197.281 451.78 198.022C451.334 198.776 451.105 199.638 451.118 200.514C451.104 201.417 451.366 202.303 451.868 203.054C452.401 203.83 453.144 204.439 454.01 204.81C455.032 205.251 456.137 205.467 457.249 205.443C458.708 205.443 459.916 205.176 460.875 204.64C461.515 204.272 462.05 203.746 462.429 203.112V205.228H466.069V195.577C466.069 193.197 465.416 191.437 464.11 190.298C462.798 189.154 460.959 188.588 458.577 188.588M460.596 201.983C459.82 202.423 458.941 202.647 458.05 202.633C457.064 202.633 456.292 202.427 455.739 202.013C455.473 201.827 455.257 201.577 455.112 201.287C454.966 200.997 454.895 200.675 454.904 200.351C454.9 200.058 454.959 199.768 455.076 199.5C455.193 199.232 455.366 198.991 455.583 198.795C456.037 198.377 456.921 198.168 458.235 198.168H462.215V200.07C461.916 200.877 461.343 201.553 460.596 201.982" fill="#010101"/>
<path d="M474.865 182.369H471.01V205.22H474.865V182.369Z" fill="#010101"/>
<path d="M487.57 195.06H479.09V198.263H487.57V195.06Z" fill="#010101"/>
<path d="M517.816 200.28L510.64 183.663H506.627H506.289H488.309V187.051H495.464V205.222H499.472V187.051H506.627V184.434L515.726 205.222H519.674L529.08 183.663H525.07L517.816 200.28Z" fill="#010101"/>
<path d="M546.995 183.663L537.279 205.222H541.413L543.552 200.231H554.347L556.492 205.222H560.687L550.939 183.663H546.995ZM544.898 197.09L548.939 187.658L552.996 197.09H544.898Z" fill="#010101"/>
<path d="M574.841 197.09C574.841 198.181 574.654 199.093 574.279 199.834C573.935 200.533 573.386 201.111 572.706 201.493C571.981 201.879 571.168 202.073 570.346 202.055C569.11 202.055 568.16 201.691 567.495 200.963C566.824 200.231 566.492 199.128 566.492 197.651V188.781H562.636V198.175C562.636 199.819 562.934 201.179 563.531 202.255C564.089 203.297 564.963 204.137 566.027 204.655C567.184 205.2 568.451 205.47 569.73 205.443C570.954 205.456 572.162 205.163 573.244 204.593C573.945 204.209 574.556 203.679 575.035 203.039V205.228H578.703V188.781H574.849L574.841 197.09Z" fill="#010101"/>
<path d="M590.168 182.154C588.278 182.154 586.823 182.672 585.804 183.708C584.784 184.743 584.275 186.124 584.278 187.849V188.901H581.565V191.981H584.278V205.222H588.134V191.981H592.543V188.901H588.008V187.911C588.008 187.031 588.216 186.366 588.625 185.928C589.034 185.49 589.645 185.263 590.445 185.263C590.833 185.264 591.218 185.321 591.589 185.434C591.945 185.542 592.279 185.714 592.573 185.943L593.622 183.045C593.165 182.719 592.646 182.489 592.097 182.369C591.464 182.222 590.817 182.15 590.168 182.154Z" fill="#010101"/>
<path d="M608.032 189.358C606.93 188.833 605.721 188.571 604.501 188.59C603.182 188.564 601.876 188.854 600.693 189.436C599.965 189.822 599.326 190.357 598.819 191.007V188.777H595.15V205.222H599.004V196.904C599.004 195.796 599.192 194.881 599.567 194.149C599.923 193.445 600.489 192.869 601.186 192.499C601.931 192.122 602.757 191.933 603.591 191.949C604.825 191.949 605.786 192.304 606.474 193.025C607.162 193.746 607.509 194.834 607.509 196.29V205.222H611.363V195.796C611.363 194.134 611.065 192.774 610.469 191.717C609.911 190.7 609.055 189.877 608.017 189.358" fill="#010101"/>
<path d="M622.58 188.592C621.293 188.587 620.011 188.758 618.77 189.101C617.627 189.398 616.554 189.916 615.611 190.625L617.122 193.433C617.793 192.889 618.563 192.479 619.39 192.228C620.272 191.945 621.192 191.801 622.118 191.801C623.492 191.801 624.52 192.113 625.201 192.737C625.876 193.366 626.217 194.235 626.217 195.369V195.616H621.962C620.297 195.616 618.962 195.833 617.956 196.266C616.948 196.698 616.222 197.281 615.78 198.022C615.334 198.776 615.104 199.638 615.116 200.514C615.103 201.417 615.364 202.303 615.866 203.054C616.4 203.83 617.143 204.438 618.009 204.81C619.03 205.251 620.134 205.467 621.246 205.443C622.704 205.443 623.917 205.175 624.871 204.64C625.513 204.273 626.049 203.746 626.427 203.111V205.228H630.069V195.577C630.069 193.197 629.416 191.437 628.109 190.298C626.796 189.154 624.957 188.588 622.575 188.588M624.592 201.983C623.818 202.423 622.94 202.647 622.05 202.633C621.06 202.633 620.292 202.427 619.735 202.013C619.47 201.826 619.255 201.577 619.11 201.286C618.966 200.996 618.895 200.675 618.905 200.351C618.9 200.059 618.958 199.769 619.074 199.5C619.191 199.232 619.363 198.992 619.579 198.795C620.033 198.377 620.918 198.168 622.236 198.168H626.215V200.07C625.917 200.878 625.344 201.555 624.596 201.982" fill="#010101"/>
<path d="M647.881 189.358C646.779 188.834 645.57 188.571 644.35 188.59C643.031 188.564 641.725 188.854 640.542 189.436C639.904 189.771 639.332 190.22 638.855 190.76V182.369H634.997V205.222H638.855V196.904C638.855 195.796 639.043 194.88 639.418 194.148C639.777 193.447 640.342 192.871 641.037 192.499C641.783 192.122 642.61 191.933 643.446 191.949C644.678 191.949 645.637 192.304 646.329 193.025C647.021 193.746 647.36 194.834 647.36 196.29V205.222H651.218V195.796C651.218 194.134 650.919 192.774 650.32 191.717C649.763 190.699 648.909 189.876 647.87 189.358" fill="#010101"/>
<path d="M680.416 189.358C679.326 188.831 678.127 188.568 676.916 188.59C675.412 188.56 673.929 188.943 672.629 189.698C671.897 190.15 671.26 190.74 670.754 191.436C670.379 190.757 669.853 190.173 669.217 189.728C668.021 188.954 666.619 188.558 665.194 188.59C663.936 188.568 662.692 188.853 661.569 189.419C660.875 189.802 660.27 190.329 659.796 190.964V188.777H656.133V205.222H659.985V196.872C659.985 195.765 660.166 194.852 660.527 194.134C660.853 193.448 661.38 192.879 662.038 192.499C662.721 192.124 663.491 191.934 664.27 191.949C665.461 191.949 666.379 192.304 667.018 193.025C667.658 193.746 667.972 194.834 667.972 196.29V205.222H671.825V196.872C671.825 195.765 672.005 194.852 672.366 194.134C672.695 193.45 673.222 192.881 673.877 192.499C674.563 192.124 675.334 191.934 676.116 191.949C677.308 191.949 678.221 192.304 678.86 193.025C679.499 193.746 679.814 194.834 679.814 196.29V205.222H683.67V195.796C683.67 194.134 683.381 192.774 682.804 191.717C682.272 190.702 681.438 189.877 680.416 189.358Z" fill="#010101"/>
<path d="M700.072 189.637C698.755 188.926 697.278 188.566 695.781 188.59C694.248 188.563 692.734 188.934 691.387 189.667C690.128 190.364 689.083 191.392 688.366 192.64C687.62 193.969 687.242 195.473 687.271 196.996C687.246 198.52 687.635 200.022 688.396 201.343C689.158 202.619 690.261 203.656 691.582 204.339C692.948 205.065 694.547 205.429 696.378 205.43C697.692 205.453 698.997 205.217 700.22 204.735C701.295 204.306 702.251 203.626 703.01 202.753L700.948 200.377C700.402 200.974 699.726 201.438 698.972 201.733C698.175 202.031 697.328 202.178 696.477 202.165C695.496 202.185 694.524 201.973 693.641 201.547C692.844 201.164 692.179 200.555 691.727 199.797C691.452 199.309 691.266 198.777 691.177 198.224H704.063C704.084 198.037 704.099 197.85 704.108 197.638C704.117 197.427 704.125 197.247 704.125 197.077C704.125 195.35 703.766 193.853 703.047 192.583C702.355 191.342 701.33 190.319 700.087 189.627M691.652 193.984C692.039 193.272 692.615 192.681 693.316 192.274C694.075 191.855 694.931 191.644 695.798 191.662C696.656 191.646 697.503 191.857 698.252 192.274C698.868 192.616 699.389 193.104 699.771 193.695C700.152 194.286 700.381 194.962 700.438 195.663H691.149C691.214 195.076 691.384 194.505 691.652 193.978" fill="#010101"/>
<path d="M720.244 182.369H716.696V211.196H720.244V182.369Z" fill="#010101"/>
<path d="M750.587 194.302C750.311 194.195 750.029 194.104 749.742 194.031C750.584 193.617 751.301 192.988 751.819 192.207C752.356 191.398 752.625 190.418 752.625 189.266C752.646 188.471 752.471 187.684 752.116 186.972C751.761 186.261 751.236 185.648 750.587 185.187C749.23 184.172 747.257 183.664 744.668 183.663H734.545V205.222H745.277C748.071 205.222 750.179 204.709 751.6 203.682C753.021 202.654 753.73 201.219 753.729 199.376C753.729 198.125 753.446 197.075 752.878 196.234C752.31 195.389 751.515 194.721 750.584 194.308M744.231 186.819C745.627 186.819 746.701 187.069 747.453 187.568C748.203 188.057 748.578 188.809 748.578 189.814C748.578 190.82 748.203 191.541 747.453 192.035C746.703 192.529 745.627 192.772 744.231 192.772H738.558V186.828L744.231 186.819ZM748.484 201.358C747.686 201.847 746.531 202.094 745.035 202.094H738.558V195.858H745.035C746.535 195.858 747.686 196.111 748.484 196.607C749.283 197.103 749.691 197.893 749.691 198.96C749.691 200.027 749.288 200.832 748.484 201.334" fill="#010101"/>
<path d="M769.091 189.637C767.774 188.926 766.297 188.566 764.8 188.59C763.267 188.563 761.753 188.934 760.406 189.667C759.147 190.365 758.102 191.393 757.385 192.64C756.639 193.969 756.262 195.473 756.292 196.996C756.267 198.52 756.656 200.022 757.416 201.343C758.178 202.619 759.282 203.656 760.603 204.339C761.969 205.065 763.567 205.429 765.398 205.43C766.712 205.453 768.018 205.217 769.241 204.735C770.316 204.306 771.272 203.626 772.03 202.753L769.968 200.377C769.423 200.974 768.747 201.438 767.993 201.733C767.195 202.031 766.349 202.178 765.498 202.165C764.517 202.185 763.545 201.973 762.661 201.547C761.865 201.164 761.199 200.555 760.747 199.797C760.473 199.309 760.287 198.777 760.198 198.224H773.084C773.104 198.037 773.119 197.85 773.131 197.638C773.142 197.427 773.146 197.247 773.146 197.077C773.146 195.35 772.786 193.853 772.068 192.583C771.376 191.342 770.351 190.318 769.108 189.627M760.672 193.984C761.061 193.272 761.637 192.681 762.339 192.274C763.097 191.855 763.953 191.644 764.819 191.662C765.677 191.646 766.524 191.857 767.273 192.274C767.888 192.616 768.41 193.104 768.792 193.695C769.173 194.286 769.402 194.962 769.458 195.663H760.151C760.216 195.076 760.386 194.505 760.654 193.978" fill="#010101"/>
<path d="M780.49 191.316V188.777H776.823V205.222H780.678V197.243C780.678 195.559 781.109 194.293 781.973 193.443C782.839 192.587 783.999 192.166 785.458 192.166C785.602 192.166 785.746 192.166 785.891 192.181C786.045 192.193 786.199 192.217 786.35 192.252V188.59C784.768 188.59 783.446 188.88 782.389 189.451C781.604 189.899 780.95 190.545 780.492 191.323" fill="#010101"/>
<path d="M794.746 188.592C793.458 188.588 792.176 188.759 790.935 189.101C789.794 189.398 788.722 189.916 787.78 190.625L789.291 193.433C789.96 192.889 790.728 192.479 791.554 192.228C792.436 191.946 793.357 191.802 794.283 191.801C795.659 191.801 796.69 192.113 797.366 192.737C798.043 193.36 798.386 194.235 798.386 195.369V195.616H794.127C792.46 195.616 791.125 195.833 790.121 196.266C789.115 196.698 788.387 197.281 787.945 198.022C787.501 198.777 787.272 199.638 787.283 200.514C787.271 201.417 787.532 202.303 788.033 203.054C788.568 203.83 789.312 204.439 790.18 204.81C791.2 205.251 792.305 205.467 793.417 205.443C794.877 205.443 796.082 205.176 797.042 204.64C797.682 204.273 798.216 203.747 798.594 203.114V205.228H802.235V195.577C802.235 193.197 801.586 191.436 800.276 190.298C798.965 189.159 797.125 188.588 794.742 188.588M796.765 201.983C795.989 202.423 795.109 202.647 794.217 202.633C793.231 202.633 792.457 202.427 791.906 202.013C791.64 201.827 791.424 201.578 791.278 201.288C791.132 200.997 791.06 200.676 791.07 200.351C791.066 200.058 791.125 199.768 791.243 199.5C791.361 199.231 791.534 198.991 791.752 198.795C792.206 198.378 793.087 198.168 794.403 198.168H798.383V200.07C798.083 200.876 797.511 201.552 796.765 201.982" fill="#010101"/>
<path d="M813.838 202.266C813.115 202.266 812.558 202.049 812.151 201.617C811.744 201.184 811.548 200.581 811.548 199.804V191.981H815.956V188.901H811.548V185.14H807.695V188.901H804.983V191.981H807.695V199.883C807.695 201.712 808.185 203.092 809.174 204.03C810.164 204.968 811.557 205.43 813.368 205.43C814.056 205.432 814.742 205.339 815.405 205.153C816.01 204.992 816.577 204.709 817.07 204.324L815.988 201.577C815.37 202.046 814.608 202.287 813.833 202.259" fill="#010101"/>
<path d="M832.34 197.09C832.34 198.181 832.152 199.093 831.768 199.834C831.424 200.534 830.876 201.112 830.195 201.493C829.472 201.879 828.66 202.073 827.839 202.055C826.6 202.055 825.652 201.68 824.986 200.963C824.321 200.246 823.981 199.128 823.981 197.651V188.781H820.129V198.175C820.129 199.819 820.424 201.171 821.021 202.255C821.581 203.296 822.453 204.136 823.516 204.655C824.673 205.199 825.94 205.469 827.219 205.443C828.444 205.455 829.653 205.163 830.737 204.593C831.437 204.207 832.047 203.677 832.525 203.037V205.228H836.192V188.781H832.34V197.09Z" fill="#010101"/>
<path d="M854.124 189.358C853.023 188.833 851.816 188.57 850.596 188.59C849.276 188.564 847.969 188.854 846.785 189.436C846.057 189.823 845.418 190.359 844.911 191.009V188.777H841.244V205.222H845.096V196.904C845.096 195.796 845.284 194.881 845.67 194.149C846.024 193.444 846.59 192.868 847.287 192.499C848.032 192.123 848.857 191.934 849.691 191.949C850.924 191.949 851.888 192.305 852.574 193.025C853.26 193.746 853.61 194.834 853.61 196.29V205.222H857.463V195.796C857.463 194.134 857.165 192.774 856.57 191.717C856.012 190.699 855.156 189.876 854.116 189.358" fill="#010101"/>
<path d="M875.081 191.065C874.556 190.386 873.894 189.826 873.137 189.419C871.966 188.854 870.678 188.57 869.377 188.59C867.904 188.571 866.447 188.909 865.133 189.575C863.9 190.206 862.865 191.165 862.143 192.346C861.397 193.604 861.018 195.045 861.048 196.507C861.048 198.109 861.413 199.504 862.143 200.694C862.866 201.878 863.9 202.843 865.133 203.481C866.444 204.158 867.902 204.501 869.377 204.479C870.68 204.503 871.97 204.213 873.137 203.635C873.807 203.275 874.403 202.794 874.896 202.216V203.152C874.896 204.815 874.475 206.064 873.632 206.896C872.79 207.728 871.463 208.143 869.651 208.141C868.515 208.14 867.386 207.958 866.308 207.6C865.315 207.301 864.387 206.816 863.575 206.17L861.849 209.064C862.776 209.827 863.963 210.407 865.411 210.805C866.862 211.206 868.361 211.408 869.866 211.406C872.741 211.406 874.941 210.702 876.467 209.294C877.992 207.886 878.752 205.696 878.746 202.723V188.772H875.079L875.081 191.065ZM874.331 198.954C873.91 199.665 873.294 200.242 872.556 200.617C871.757 201.029 870.867 201.236 869.968 201.22C869.063 201.234 868.169 201.027 867.364 200.617C866.621 200.244 866 199.667 865.574 198.954C865.158 198.205 864.94 197.362 864.94 196.505C864.94 195.648 865.158 194.805 865.574 194.055C865.997 193.347 866.62 192.779 867.364 192.422C868.177 192.038 869.068 191.845 869.968 191.861C870.863 191.844 871.749 192.036 872.556 192.422C873.295 192.781 873.912 193.349 874.331 194.055C874.747 194.805 874.966 195.648 874.966 196.505C874.966 197.362 874.747 198.205 874.331 198.954Z" fill="#010101"/>
<path d="M896.236 182.369H892.687V211.196H896.236V182.369Z" fill="#010101"/>
<path d="M923.448 194.566C922.662 194.119 921.824 193.767 920.953 193.519C920.035 193.252 919.116 193.01 918.188 192.793C917.261 192.576 916.43 192.357 915.677 192.134C915.011 191.953 914.391 191.634 913.856 191.198C913.63 191.002 913.45 190.757 913.33 190.483C913.21 190.208 913.154 189.91 913.165 189.61C913.157 189.079 913.324 188.56 913.641 188.133C913.959 187.701 914.466 187.354 915.152 187.087C915.838 186.819 916.739 186.686 917.853 186.686C918.854 186.694 919.849 186.834 920.813 187.104C921.867 187.389 922.876 187.819 923.812 188.38L925.076 185.269C924.049 184.62 922.924 184.141 921.744 183.854C920.487 183.526 919.192 183.36 917.892 183.359C915.917 183.359 914.287 183.653 913.003 184.239C911.719 184.821 910.754 185.604 910.135 186.577C909.514 187.536 909.188 188.656 909.198 189.798C909.198 190.945 909.434 191.893 909.909 192.63C910.369 193.36 911 193.967 911.746 194.401C912.53 194.86 913.368 195.222 914.241 195.478C915.154 195.755 916.072 195.998 916.985 196.204C917.898 196.41 918.732 196.631 919.486 196.863C920.154 197.057 920.777 197.383 921.317 197.822C921.549 198.014 921.733 198.257 921.857 198.532C921.98 198.807 922.038 199.106 922.027 199.407C922.032 199.927 921.857 200.433 921.533 200.84C921.203 201.261 920.693 201.588 919.992 201.837C919.291 202.086 918.376 202.212 917.247 202.212C915.913 202.212 914.589 201.982 913.333 201.532C912.179 201.15 911.096 200.58 910.126 199.847L908.739 202.953C909.64 203.716 910.862 204.34 912.406 204.825C913.973 205.313 915.606 205.558 917.247 205.552C919.223 205.552 920.858 205.258 922.151 204.67C923.447 204.088 924.401 203.305 925.034 202.332C925.65 201.384 925.976 200.278 925.972 199.149C925.972 198.026 925.739 197.09 925.28 196.341C924.829 195.613 924.203 195.01 923.46 194.585" fill="#010101"/>
<path d="M934.536 192.469C935.324 192.055 936.203 191.845 937.093 191.857C937.893 191.852 938.682 192.041 939.393 192.407C940.137 192.813 940.76 193.409 941.198 194.134L944.158 192.407C943.551 191.187 942.573 190.191 941.363 189.56C940.052 188.894 938.596 188.562 937.125 188.592C935.522 188.563 933.938 188.932 932.514 189.667C931.208 190.351 930.115 191.379 929.353 192.64C928.606 193.969 928.213 195.467 928.213 196.991C928.213 198.516 928.606 200.014 929.353 201.343C930.114 202.61 931.207 203.646 932.514 204.339C933.934 205.084 935.52 205.459 937.125 205.43C938.6 205.46 940.058 205.116 941.363 204.43C942.566 203.788 943.541 202.792 944.158 201.577L941.198 199.853C940.763 200.579 940.139 201.175 939.393 201.577C938.684 201.95 937.894 202.143 937.093 202.139C936.202 202.152 935.322 201.939 934.536 201.521C933.78 201.119 933.158 200.505 932.746 199.756C932.319 198.898 932.098 197.954 932.098 196.997C932.098 196.04 932.319 195.096 932.746 194.238C933.16 193.489 933.782 192.874 934.536 192.467" fill="#010101"/>
<path d="M960.208 189.358C959.107 188.833 957.9 188.57 956.68 188.59C955.36 188.563 954.053 188.854 952.869 189.436C952.231 189.773 951.66 190.223 951.182 190.764V182.369H947.33V205.222H951.182V196.904C951.182 195.796 951.37 194.88 951.754 194.148C952.11 193.444 952.676 192.868 953.374 192.499C954.118 192.122 954.943 191.933 955.777 191.949C957.01 191.949 957.974 192.304 958.66 193.025C959.346 193.746 959.696 194.834 959.696 196.29V205.222H963.549V195.796C963.549 194.134 963.251 192.774 962.656 191.717C962.098 190.699 961.242 189.876 960.203 189.358" fill="#010101"/>
<path d="M974.749 188.592C973.461 188.587 972.179 188.758 970.938 189.101C969.795 189.398 968.721 189.915 967.777 190.625L969.288 193.433C969.96 192.889 970.731 192.479 971.558 192.228C972.44 191.945 973.36 191.801 974.286 191.801C975.661 191.801 976.688 192.113 977.369 192.737C978.044 193.366 978.386 194.235 978.386 195.369V195.616H974.13C972.466 195.616 971.13 195.833 970.124 196.266C969.114 196.698 968.39 197.281 967.948 198.022C967.5 198.775 967.27 199.638 967.283 200.514C967.268 201.417 967.53 202.303 968.032 203.054C968.566 203.83 969.308 204.438 970.173 204.81C971.195 205.251 972.3 205.467 973.412 205.443C974.871 205.443 976.084 205.175 977.038 204.64C977.68 204.272 978.216 203.745 978.595 203.111V205.228H982.236V195.577C982.236 193.197 981.582 191.437 980.275 190.298C978.963 189.154 977.124 188.588 974.741 188.588M976.758 201.983C975.984 202.423 975.107 202.647 974.217 202.633C973.227 202.633 972.458 202.427 971.901 202.013C971.636 201.826 971.422 201.577 971.277 201.286C971.132 200.996 971.061 200.675 971.071 200.351C971.067 200.059 971.124 199.769 971.241 199.5C971.357 199.232 971.529 198.992 971.746 198.795C972.199 198.377 973.085 198.168 974.402 198.168H978.378V200.07C978.08 200.878 977.507 201.555 976.758 201.982" fill="#010101"/>
<path d="M992.171 192.469C992.961 192.055 993.842 191.845 994.734 191.857C995.532 191.852 996.319 192.041 997.028 192.407C997.773 192.812 998.396 193.408 998.833 194.134L1001.79 192.407C1001.19 191.189 1000.21 190.192 999.004 189.56C997.691 188.894 996.235 188.562 994.763 188.592C993.162 188.563 991.578 188.932 990.154 189.667C988.847 190.349 987.754 191.378 986.994 192.64C986.243 193.967 985.848 195.466 985.848 196.991C985.848 198.516 986.243 200.015 986.994 201.343C987.753 202.611 988.846 203.647 990.154 204.339C991.574 205.084 993.16 205.459 994.763 205.43C996.239 205.46 997.698 205.116 999.004 204.43C1000.2 203.786 1001.18 202.79 1001.79 201.577L998.833 199.853C998.399 200.581 997.775 201.177 997.028 201.577C996.321 201.95 995.533 202.142 994.734 202.139C993.841 202.152 992.959 201.94 992.171 201.521C991.416 201.119 990.796 200.506 990.386 199.756C989.958 198.899 989.736 197.954 989.736 196.997C989.736 196.04 989.958 195.095 990.386 194.238C990.798 193.489 991.418 192.873 992.171 192.467" fill="#010101"/>
<path d="M1017.85 189.358C1016.74 188.833 1015.53 188.571 1014.31 188.59C1013 188.564 1011.69 188.855 1010.51 189.436C1009.87 189.772 1009.3 190.22 1008.82 190.76V182.369H1004.96V205.222H1008.82V196.904C1008.82 195.796 1009.01 194.88 1009.38 194.148C1009.74 193.446 1010.31 192.871 1011 192.499C1011.75 192.122 1012.58 191.933 1013.41 191.949C1014.64 191.949 1015.6 192.304 1016.29 193.025C1016.98 193.746 1017.33 194.834 1017.33 196.29V205.222H1021.18V195.796C1021.18 194.134 1020.88 192.774 1020.29 191.717C1019.73 190.699 1018.87 189.876 1017.84 189.358" fill="#010101"/>
<path d="M1032.75 202.266C1032.03 202.266 1031.48 202.049 1031.07 201.617C1030.66 201.184 1030.47 200.581 1030.47 199.804V191.981H1034.87V188.901H1030.47V185.14H1026.62V188.901H1023.91V191.981H1026.62V199.883C1026.62 201.711 1027.11 203.094 1028.1 204.03C1029.09 204.966 1030.48 205.433 1032.29 205.43C1032.98 205.432 1033.66 205.339 1034.33 205.153C1034.93 204.992 1035.5 204.71 1035.99 204.324L1034.91 201.577C1034.29 202.047 1033.53 202.287 1032.75 202.259" fill="#010101"/>
<path d="M1049.7 196.769C1049.07 196.444 1048.4 196.192 1047.71 196.021C1046.99 195.835 1046.27 195.696 1045.53 195.603C1044.87 195.52 1044.2 195.403 1043.55 195.253C1043.03 195.144 1042.54 194.945 1042.1 194.665C1041.92 194.546 1041.77 194.381 1041.67 194.187C1041.57 193.993 1041.53 193.776 1041.54 193.559C1041.54 193.023 1041.82 192.58 1042.39 192.23C1042.95 191.885 1043.82 191.709 1044.99 191.709C1045.79 191.711 1046.58 191.799 1047.35 191.971C1048.18 192.163 1048.98 192.491 1049.71 192.941L1051.19 190.015C1050.32 189.511 1049.37 189.158 1048.38 188.97C1047.28 188.725 1046.15 188.599 1045.02 188.596C1043.71 188.567 1042.41 188.78 1041.18 189.223C1040.19 189.58 1039.32 190.198 1038.66 191.011C1038.06 191.791 1037.75 192.752 1037.77 193.735C1037.77 194.682 1037.96 195.44 1038.32 196.017C1038.69 196.584 1039.19 197.054 1039.77 197.385C1040.4 197.737 1041.07 197.997 1041.76 198.159C1042.49 198.335 1043.22 198.468 1043.95 198.57C1044.68 198.673 1045.35 198.788 1045.94 198.911C1046.45 199.002 1046.94 199.186 1047.39 199.452C1047.57 199.557 1047.71 199.708 1047.81 199.89C1047.91 200.071 1047.96 200.276 1047.95 200.482C1047.95 201.044 1047.68 201.482 1047.13 201.806C1046.59 202.129 1045.71 202.3 1044.5 202.3C1043.45 202.298 1042.41 202.141 1041.41 201.836C1040.48 201.571 1039.59 201.177 1038.76 200.667L1037.28 203.593C1038.02 204.108 1039.03 204.546 1040.28 204.904C1041.57 205.268 1042.9 205.45 1044.24 205.445C1045.78 205.445 1047.11 205.234 1048.22 204.812C1049.23 204.467 1050.12 203.854 1050.8 203.039C1051.4 202.281 1051.73 201.333 1051.7 200.362C1051.7 199.439 1051.52 198.688 1051.15 198.116C1050.79 197.548 1050.29 197.087 1049.69 196.777" fill="#010101"/>
<path d="M1061.35 188.592C1060.06 188.587 1058.78 188.758 1057.53 189.101C1056.39 189.398 1055.32 189.915 1054.37 190.625L1055.88 193.433C1056.56 192.889 1057.33 192.48 1058.15 192.228C1059.03 191.946 1059.95 191.802 1060.88 191.801C1062.26 191.801 1063.28 192.113 1063.97 192.737C1064.65 193.36 1064.98 194.235 1064.98 195.369V195.616H1060.73C1059.07 195.616 1057.73 195.833 1056.73 196.266C1055.72 196.698 1054.99 197.281 1054.55 198.022C1054.1 198.776 1053.87 199.638 1053.89 200.514C1053.87 201.417 1054.13 202.304 1054.64 203.054C1055.17 203.83 1055.91 204.439 1056.78 204.81C1057.8 205.251 1058.9 205.467 1060.01 205.443C1061.47 205.443 1062.69 205.176 1063.64 204.64C1064.28 204.272 1064.82 203.745 1065.2 203.111V205.228H1068.84V195.577C1068.84 193.197 1068.18 191.437 1066.88 190.298C1065.57 189.154 1063.73 188.588 1061.35 188.588M1063.36 201.983C1062.59 202.423 1061.71 202.647 1060.82 202.633C1059.83 202.633 1059.06 202.427 1058.5 202.013C1058.24 201.826 1058.02 201.576 1057.88 201.286C1057.73 200.996 1057.66 200.675 1057.67 200.351C1057.67 200.059 1057.73 199.769 1057.84 199.5C1057.96 199.232 1058.13 198.992 1058.35 198.795C1058.8 198.377 1059.69 198.168 1061.01 198.168H1064.98V200.07C1064.68 200.877 1064.11 201.553 1063.36 201.982" fill="#010101"/>
<path d="M1086.65 189.358C1085.54 188.833 1084.33 188.571 1083.11 188.59C1081.79 188.564 1080.49 188.855 1079.31 189.436C1078.58 189.822 1077.94 190.356 1077.43 191.003V188.777H1073.76V205.222H1077.62V196.904C1077.62 195.796 1077.81 194.88 1078.18 194.148C1078.54 193.446 1079.1 192.87 1079.8 192.499C1080.55 192.122 1081.37 191.933 1082.21 191.949C1083.44 191.949 1084.4 192.304 1085.09 193.025C1085.78 193.746 1086.12 194.834 1086.12 196.29V205.222H1089.98V195.796C1089.98 194.134 1089.68 192.774 1089.08 191.717C1088.53 190.699 1087.67 189.876 1086.63 189.358" fill="#010101"/>
<path d="M1096.84 181.442C1096.51 181.431 1096.19 181.483 1095.88 181.597C1095.58 181.711 1095.3 181.885 1095.06 182.107C1094.84 182.321 1094.67 182.576 1094.55 182.858C1094.43 183.139 1094.37 183.441 1094.37 183.747C1094.37 184.052 1094.43 184.355 1094.55 184.636C1094.67 184.918 1094.84 185.173 1095.06 185.387C1095.3 185.612 1095.58 185.789 1095.88 185.905C1096.18 186.021 1096.51 186.075 1096.84 186.063C1097.17 186.078 1097.5 186.024 1097.8 185.905C1098.11 185.786 1098.39 185.605 1098.62 185.372C1098.85 185.148 1099.02 184.881 1099.14 184.587C1099.26 184.293 1099.31 183.979 1099.31 183.663C1099.31 183.363 1099.25 183.066 1099.13 182.792C1099.01 182.518 1098.83 182.273 1098.61 182.075C1098.12 181.644 1097.49 181.418 1096.84 181.442Z" fill="#010101"/>
<path d="M1098.75 188.775H1094.9V205.22H1098.75V188.775Z" fill="#010101"/>
<path d="M1115.25 189.637C1113.93 188.925 1112.46 188.565 1110.96 188.59C1109.43 188.563 1107.91 188.934 1106.57 189.667C1105.31 190.363 1104.26 191.391 1103.55 192.64C1102.8 193.967 1102.42 195.472 1102.45 196.996C1102.42 198.52 1102.81 200.023 1103.57 201.343C1104.33 202.619 1105.43 203.656 1106.75 204.339C1108.11 205.065 1109.71 205.429 1111.55 205.43C1112.86 205.453 1114.16 205.217 1115.38 204.735C1116.46 204.307 1117.41 203.627 1118.17 202.753L1116.11 200.377C1115.56 200.973 1114.89 201.436 1114.14 201.733C1113.34 202.031 1112.49 202.177 1111.64 202.165C1110.66 202.185 1109.68 201.973 1108.8 201.547C1108 201.163 1107.34 200.555 1106.89 199.797C1106.61 199.309 1106.43 198.777 1106.34 198.224H1119.22C1119.24 198.037 1119.25 197.85 1119.27 197.638C1119.28 197.427 1119.28 197.247 1119.28 197.077C1119.28 195.35 1118.92 193.853 1118.2 192.583C1117.51 191.34 1116.48 190.316 1115.24 189.627M1106.8 193.984C1107.19 193.27 1107.77 192.678 1108.47 192.274C1109.23 191.854 1110.08 191.643 1110.95 191.662C1111.81 191.646 1112.65 191.857 1113.4 192.274C1114.01 192.618 1114.53 193.106 1114.92 193.697C1115.3 194.288 1115.53 194.963 1115.59 195.663H1106.3C1106.36 195.076 1106.53 194.505 1106.8 193.978" fill="#010101"/>
<path d="M1126.66 191.314V188.775H1122.99V205.222H1126.84V197.243C1126.84 195.558 1127.27 194.293 1128.14 193.443C1129.01 192.593 1130.16 192.166 1131.62 192.166C1131.76 192.166 1131.91 192.166 1132.05 192.181C1132.21 192.193 1132.36 192.217 1132.52 192.254V188.592C1130.93 188.592 1129.61 188.878 1128.55 189.451C1127.77 189.899 1127.11 190.545 1126.66 191.323" fill="#010101"/>
<path d="M1148.03 197.09C1148.03 198.181 1147.84 199.093 1147.46 199.834C1147.11 200.534 1146.57 201.113 1145.88 201.493C1145.16 201.879 1144.35 202.073 1143.53 202.055C1142.29 202.055 1141.34 201.68 1140.67 200.963C1140.01 200.246 1139.67 199.128 1139.67 197.651V188.781H1135.82V198.175C1135.82 199.819 1136.11 201.171 1136.71 202.255C1137.27 203.296 1138.14 204.136 1139.2 204.655C1140.36 205.199 1141.63 205.469 1142.91 205.443C1144.13 205.455 1145.34 205.163 1146.43 204.593C1147.13 204.208 1147.74 203.677 1148.21 203.037V205.228H1151.88V188.781H1148.03V197.09Z" fill="#010101"/>
<path d="M1169.82 189.358C1168.71 188.833 1167.51 188.571 1166.28 188.59C1164.97 188.564 1163.66 188.855 1162.48 189.436C1161.75 189.821 1161.11 190.355 1160.6 191.003V188.777H1156.93V205.222H1160.79V196.904C1160.79 195.796 1160.98 194.88 1161.35 194.148C1161.71 193.446 1162.27 192.871 1162.97 192.499C1163.72 192.122 1164.54 191.934 1165.38 191.949C1166.61 191.949 1167.57 192.304 1168.26 193.025C1168.95 193.746 1169.29 194.834 1169.29 196.29V205.222H1173.15V195.796C1173.15 194.134 1172.85 192.774 1172.25 191.717C1171.7 190.699 1170.84 189.876 1169.8 189.358" fill="#010101"/>
<path d="M1190.77 188.777V191.061C1190.25 190.384 1189.59 189.824 1188.83 189.419C1187.66 188.854 1186.37 188.57 1185.07 188.59C1183.59 188.571 1182.14 188.908 1180.83 189.575C1179.59 190.203 1178.55 191.163 1177.83 192.346C1177.08 193.603 1176.7 195.045 1176.73 196.507C1176.73 198.109 1177.1 199.504 1177.83 200.694C1178.55 201.88 1179.59 202.845 1180.83 203.481C1182.14 204.159 1183.59 204.502 1185.07 204.479C1186.37 204.502 1187.66 204.213 1188.83 203.635C1189.5 203.276 1190.09 202.796 1190.58 202.219V203.155C1190.58 204.82 1190.17 206.067 1189.32 206.9C1188.48 207.733 1187.16 208.145 1185.34 208.145C1184.21 208.144 1183.08 207.961 1182 207.604C1181.01 207.305 1180.08 206.82 1179.27 206.173L1177.54 209.068C1178.47 209.83 1179.66 210.412 1181.1 210.809C1182.56 211.21 1184.05 211.412 1185.56 211.41C1188.43 211.41 1190.63 210.706 1192.15 209.298C1193.68 207.89 1194.44 205.7 1194.44 202.727V188.775L1190.77 188.777ZM1190.02 198.954C1189.6 199.663 1188.98 200.239 1188.25 200.617C1187.45 201.028 1186.56 201.235 1185.66 201.22C1184.75 201.234 1183.86 201.027 1183.05 200.617C1182.31 200.241 1181.69 199.662 1181.27 198.947C1180.85 198.197 1180.63 197.354 1180.63 196.497C1180.63 195.64 1180.85 194.797 1181.27 194.047C1181.69 193.34 1182.31 192.772 1183.05 192.415C1183.87 192.03 1184.76 191.838 1185.66 191.853C1186.56 191.837 1187.44 192.029 1188.25 192.415C1188.99 192.777 1189.6 193.344 1190.02 194.047C1190.44 194.798 1190.65 195.641 1190.65 196.497C1190.65 197.354 1190.44 198.196 1190.02 198.947" fill="#010101"/>
<path d="M456.516 65.6854L439.691 94.217L422.584 65.6854H415.995V108.739H423.631V80.5878L437.795 103.821H441.368L455.538 80.2133L455.594 108.739H463.169L463.107 65.6854H456.516Z" fill="#00598E"/>
<path d="M506.833 86.9325C506.292 86.7211 505.738 86.5435 505.174 86.4008C506.846 85.5665 508.268 84.3074 509.298 82.7501C510.364 81.135 510.898 79.178 510.899 76.879C510.899 73.4754 509.544 70.759 506.835 68.7295C504.126 66.7001 500.184 65.6854 495.01 65.6854H474.808V108.745H496.242C501.824 108.745 506.032 107.72 508.865 105.671C511.698 103.621 513.115 100.751 513.115 97.0589C513.115 94.5552 512.552 92.464 511.428 90.7853C510.29 89.0987 508.701 87.7655 506.841 86.9381M494.156 71.9609C496.947 71.9609 499.092 72.4526 500.591 73.4361C502.089 74.4196 502.839 75.9174 502.84 77.9293C502.84 79.8975 502.09 81.374 500.591 82.3588C499.091 83.3436 496.946 83.8341 494.156 83.8303H482.813V71.959L494.156 71.9609ZM502.653 100.99C501.052 101.974 498.753 102.466 495.756 102.468H482.822V90.044H495.756C498.756 90.044 501.054 90.5432 502.653 91.5417C504.251 92.5402 505.052 94.1096 505.054 96.2501C505.054 98.4231 504.254 100.001 502.653 100.983" fill="#00598E"/>
<path d="M576.978 65.6854H567.988L546.678 87.7768V65.6854H538.672V108.739H546.678V97.7142L553.547 90.6917L568.727 108.739H578.086L558.848 84.9236L576.978 65.6854Z" fill="#00598E"/>
<path d="M594.592 75.5254C592.022 75.518 589.463 75.8594 586.985 76.5401C584.544 77.2191 582.44 78.2338 580.673 79.5842L583.689 85.1819C585.031 84.0992 586.568 83.2844 588.218 82.7818C589.979 82.2137 591.819 81.9238 593.669 81.9225C596.419 81.9225 598.471 82.5466 599.825 83.7947C601.183 85.0453 601.857 86.8032 601.857 89.0535V89.5478H593.36C590.037 89.5478 587.368 89.9784 585.354 90.8396C583.339 91.7008 581.892 92.8702 581.011 94.348C580.124 95.8563 579.67 97.5791 579.698 99.3279C579.672 101.132 580.195 102.901 581.198 104.401C582.204 105.899 583.631 107.068 585.479 107.908C587.328 108.748 589.483 109.169 591.947 109.17C594.86 109.17 597.271 108.636 599.18 107.569C600.56 106.8 601.526 105.727 602.292 104.508V108.737H609.56V89.4879C609.56 84.7351 608.256 81.2192 605.648 78.9402C603.04 76.6612 599.353 75.5229 594.588 75.5254M598.62 102.28C597.073 103.155 595.32 103.602 593.542 103.574C591.572 103.574 590.033 103.163 588.923 102.342C588.393 101.969 587.963 101.47 587.673 100.891C587.383 100.311 587.241 99.6686 587.26 99.0209C587.25 98.4366 587.365 97.8568 587.599 97.321C587.832 96.7851 588.179 96.3056 588.614 95.915C589.515 95.0762 591.28 94.6556 593.909 94.6531H601.854V98.4705C601.258 100.081 600.113 101.429 598.62 102.28Z" fill="#00598E"/>
<path d="M645.122 77.0699C643.049 76.0452 640.699 75.5323 638.074 75.531C635.199 75.531 632.664 76.0927 630.467 77.2159C628.941 77.9985 627.76 79.0993 626.738 80.3462V75.8923H619.411V108.735H627.109V92.1313C627.109 89.9172 627.489 88.0819 628.249 86.6254C628.957 85.2183 630.087 84.0675 631.483 83.3341C632.967 82.5761 634.616 82.196 636.283 82.2277C638.748 82.2277 640.668 82.9447 642.044 84.3788C643.42 85.8129 644.107 87.9864 644.106 90.8995V108.735H651.806V89.9203C651.806 86.5992 651.21 83.8814 650.016 81.7671C648.907 79.7344 647.198 78.0923 645.122 77.0643" fill="#00598E"/>
<path d="M674.16 75.5254C671.591 75.5175 669.033 75.8589 666.555 76.5401C664.111 77.2191 662.007 78.2338 660.242 79.5842L663.26 85.1819C664.6 84.0985 666.137 83.2836 667.787 82.7819C669.548 82.2134 671.387 81.9235 673.238 81.9225C675.987 81.9225 678.04 82.5466 679.396 83.7947C680.751 85.0453 681.428 86.8032 681.428 89.0536V89.5478H672.929C669.603 89.5478 666.934 89.9784 664.921 90.8396C662.908 91.7008 661.46 92.8703 660.577 94.348C659.691 95.8563 659.237 97.5791 659.265 99.3279C659.239 101.132 659.762 102.901 660.765 104.401C661.771 105.899 663.198 107.068 665.046 107.908C666.895 108.748 669.05 109.169 671.512 109.17C674.426 109.17 676.838 108.636 678.747 107.569C680.129 106.8 681.092 105.725 681.863 104.506V108.737H689.129V89.4879C689.129 84.7351 687.824 81.2192 685.215 78.9402C682.605 76.6612 678.919 75.5229 674.155 75.5254M678.189 102.28C676.641 103.155 674.887 103.601 673.109 103.574C671.139 103.574 669.599 103.163 668.488 102.342C667.958 101.969 667.528 101.47 667.239 100.89C666.949 100.311 666.807 99.6685 666.827 99.0209C666.816 98.4367 666.932 97.857 667.165 97.3212C667.398 96.7853 667.744 96.3058 668.179 95.915C669.08 95.0763 670.85 94.6532 673.474 94.6532H681.422V98.4705C680.823 100.079 679.679 101.427 678.189 102.28Z" fill="#00598E"/>
<path d="M706.676 63.1018H698.978V108.739H706.676V63.1018Z" fill="#00598E"/>
<path d="M731.683 102.838C730.243 102.838 729.124 102.404 728.325 101.544C727.527 100.685 727.124 99.4738 727.124 97.9143V82.2931H735.934V76.1337H727.124V68.6451H719.423V76.1337H714.004V82.2894H719.423V98.0959C719.423 101.747 720.409 104.504 722.379 106.367C724.35 108.23 727.141 109.167 730.753 109.175C732.129 109.177 733.498 108.988 734.822 108.614C736.032 108.295 737.163 107.73 738.144 106.955L735.988 101.481C734.843 102.383 733.405 102.835 731.677 102.836" fill="#00598E"/>
<path d="M766.229 77.6166C763.722 76.22 760.868 75.5229 757.667 75.5254C754.383 75.5254 751.458 76.2431 748.891 77.6784C746.374 79.0695 744.287 81.1235 742.857 83.6168C741.398 86.1349 740.671 89.0461 740.671 92.3148C740.671 95.5599 741.421 98.4511 742.92 100.989C744.43 103.54 746.629 105.616 749.264 106.979C751.992 108.432 755.184 109.16 758.841 109.162C761.715 109.162 764.271 108.701 766.508 107.777C768.656 106.919 770.568 105.559 772.083 103.812L767.959 99.0733C766.869 100.262 765.523 101.189 764.022 101.782C762.428 102.376 760.737 102.669 759.036 102.643C756.901 102.643 755.012 102.233 753.367 101.412C751.779 100.641 750.452 99.4217 749.551 97.9051C749.003 96.9315 748.631 95.8695 748.45 94.7674H774.186C774.223 94.3929 774.253 94.0185 774.28 93.5991C774.306 93.1798 774.31 92.8203 774.31 92.4908C774.31 89.0461 773.591 86.0506 772.154 83.5045C770.776 81.0204 768.727 78.9736 766.24 77.5979M749.397 86.3015C750.168 84.8779 751.319 83.6958 752.722 82.8867C754.136 82.0679 755.788 81.6579 757.679 81.6567C759.393 81.6237 761.084 82.0483 762.579 82.8867C763.978 83.6953 765.136 84.8634 765.93 86.2697C766.508 87.275 766.793 88.4301 766.945 89.6545H748.387C748.561 88.4339 748.851 87.2881 749.393 86.3015" fill="#00598E"/>
<path d="M791.601 83.2761C793.173 82.4441 794.931 82.0211 796.71 82.0461C798.308 82.0359 799.884 82.4157 801.301 83.1525C802.718 83.8889 803.92 85.0378 804.906 86.5992L810.815 83.1525C809.604 80.7161 807.654 78.7242 805.242 77.4612C802.801 76.1694 799.978 75.5241 796.772 75.5254C793.329 75.5254 790.261 76.243 787.568 77.6784C784.956 79.0388 782.771 81.0939 781.255 83.6168C779.735 86.1342 778.975 89.0336 778.975 92.3148C778.975 95.5599 779.735 98.4511 781.255 100.989C782.77 103.525 784.954 105.598 787.568 106.979C790.254 108.432 793.322 109.16 796.772 109.162C799.977 109.162 802.8 108.495 805.242 107.159C807.638 105.878 809.583 103.894 810.815 101.473L804.906 98.0286C803.92 99.5875 802.718 100.736 801.301 101.473C799.884 102.21 798.308 102.59 796.71 102.58C794.931 102.605 793.173 102.182 791.601 101.35C790.095 100.539 788.858 99.3103 788.039 97.8115C787.173 96.2763 786.742 94.441 786.745 92.3055C786.745 90.1787 787.173 88.3403 788.039 86.8051C788.858 85.3063 790.095 84.0771 791.601 83.2667" fill="#00598E"/>
<path d="M842.871 77.0699C840.798 76.0452 838.448 75.5322 835.821 75.531C832.947 75.531 830.411 76.0926 828.214 77.2159C826.944 77.8883 825.807 78.7852 824.859 79.8631V63.098H817.158V108.735H824.859V92.1313C824.859 89.9172 825.239 88.0819 825.998 86.6253C826.706 85.2188 827.836 84.0681 829.23 83.3341C830.715 82.5766 832.365 82.1966 834.033 82.2277C836.497 82.2277 838.417 82.9447 839.793 84.3788C841.169 85.8128 841.856 87.9864 841.855 90.8994V108.735H849.554V89.9203C849.554 86.5991 848.959 83.8814 847.769 81.7671C846.659 79.7342 844.949 78.0922 842.871 77.0643" fill="#00598E"/>
<path d="M885.056 77.0699C882.983 76.0452 880.632 75.5323 878.006 75.531C875.131 75.531 872.596 76.0927 870.399 77.2159C868.871 78.0004 867.69 79.1012 866.67 80.3499V75.8923H859.343V108.735H867.041V92.1313C867.041 89.9172 867.421 88.0819 868.181 86.6254C868.889 85.2183 870.019 84.0675 871.415 83.3341C872.899 82.5766 874.548 82.1966 876.215 82.2277C878.681 82.2277 880.601 82.9447 881.976 84.3788C883.351 85.8129 884.038 87.9864 884.038 90.8995V108.735H891.737V89.9203C891.737 86.5992 891.142 83.8814 889.952 81.7671C888.841 79.735 887.131 78.0932 885.054 77.0643" fill="#00598E"/>
<path d="M905.415 61.2559C903.976 61.2559 902.795 61.6971 901.872 62.5795C901.433 63.0048 901.084 63.514 900.845 64.0768C900.606 64.6396 900.483 65.2445 900.483 65.8557C900.483 66.4669 900.606 67.0718 900.845 67.6347C901.084 68.1975 901.433 68.7066 901.872 69.132C902.795 70.0369 903.976 70.488 905.415 70.4855C906.889 70.4855 908.081 70.025 908.977 69.1002C909.422 68.6523 909.771 68.1192 910.004 67.533C910.238 66.9469 910.35 66.3197 910.334 65.6891C910.347 65.0922 910.229 64.4998 909.989 63.9529C909.75 63.4059 909.394 62.9175 908.947 62.5214C908.022 61.6827 906.843 61.2621 905.41 61.2596" fill="#00598E"/>
<path d="M909.23 75.8961H901.531V108.739H909.23V75.8961Z" fill="#00598E"/>
<path d="M952.213 75.8961H942.977L927.027 90.6262V63.1018H919.328V108.739H927.027V100.082L932.752 94.6756L944.149 108.739H953.508L938.493 89.6564L952.213 75.8961Z" fill="#00598E"/>
<path d="M985.595 76.321C987.025 74.9466 988.722 73.88 990.581 73.187C992.589 72.4344 994.719 72.0593 996.863 72.0806C999.078 72.032 1001.28 72.4444 1003.32 73.2914C1005.37 74.1385 1007.22 75.4016 1008.75 77.0006L1013.8 72.0806C1011.77 69.7754 1009.23 67.9833 1006.38 66.8517C1003.44 65.6622 1000.15 65.0675 996.497 65.0675C993.123 65.0675 990.022 65.611 987.194 66.6981C984.442 67.7349 981.92 69.3016 979.773 71.3092C977.666 73.2905 975.999 75.6911 974.878 78.356C972.576 84.0364 972.576 90.3881 974.878 96.0684C975.996 98.7252 977.652 101.122 979.743 103.108C981.865 105.118 984.366 106.687 987.1 107.723C989.916 108.81 993.007 109.353 996.374 109.351C999.433 109.349 1002.47 108.883 1005.39 107.97C1008.24 107.113 1010.91 105.725 1013.25 103.881V86.7208H1005.67V100.079C1004.82 100.581 1003.92 100.999 1002.99 101.327C1001 102.002 998.907 102.344 996.803 102.34C994.658 102.367 992.528 101.992 990.521 101.234C988.687 100.529 987.016 99.4564 985.613 98.0813C984.209 96.7063 983.104 95.0585 982.363 93.2396C980.844 89.3427 980.844 85.0181 982.363 81.1212C983.096 79.3141 984.197 77.6793 985.597 76.321" fill="#00598E"/>
<path d="M1071.54 77.0699C1069.51 76.0452 1067.18 75.5323 1064.55 75.531C1061.3 75.531 1058.44 76.2693 1055.99 77.7458C1054.53 78.6456 1053.26 79.8237 1052.25 81.213C1051.46 79.8501 1050.48 78.6687 1049.19 77.8075C1046.91 76.2873 1044.23 75.5285 1041.15 75.531C1038.44 75.531 1036.03 76.0852 1033.91 77.1935C1032.46 77.9423 1031.34 79.0375 1030.37 80.2732V75.9017H1023.04V108.745H1030.74V92.0827C1030.74 89.8673 1031.1 88.0426 1031.82 86.6085C1032.47 85.2407 1033.52 84.1032 1034.84 83.3472C1036.2 82.5922 1037.74 82.2105 1039.3 82.2408C1041.68 82.2408 1043.51 82.9578 1044.78 84.3919C1046.06 85.826 1046.69 87.9995 1046.69 90.9126V108.749H1054.39V92.0864C1054.39 89.871 1054.75 88.0463 1055.47 86.6123C1056.12 85.2449 1057.17 84.1075 1058.48 83.351C1059.85 82.5959 1061.39 82.2142 1062.95 82.2445C1065.33 82.2445 1067.15 82.9616 1068.43 84.3956C1069.71 85.8297 1070.35 88.0033 1070.34 90.9163V108.752H1078.04V89.9204C1078.04 86.5992 1077.46 83.8814 1076.31 81.7671C1075.25 79.7425 1073.58 78.0987 1071.54 77.0643" fill="#00598E"/>
<path d="M1114.71 77.6166C1112.22 76.22 1109.36 75.5229 1106.12 75.5254C1103.57 75.4948 1101.06 76.1189 1098.82 77.3376C1097.6 78.0376 1096.5 78.944 1095.59 80.0167V63.1018H1087.89V108.739H1095.23V104.231C1096.22 105.472 1097.33 106.56 1098.67 107.324C1100.85 108.554 1103.34 109.17 1106.13 109.172C1109.37 109.172 1112.23 108.465 1114.72 107.051C1117.18 105.656 1119.22 103.627 1120.63 101.174C1122.09 98.6776 1122.82 95.7246 1122.82 92.3148C1122.82 88.9169 1122.09 85.9495 1120.63 83.4614C1119.23 81.0131 1117.19 78.9925 1114.72 77.6166M1113.7 97.7909C1112.91 99.2861 1111.7 100.524 1110.22 101.359C1108.71 102.193 1107 102.618 1105.27 102.589C1103.53 102.615 1101.81 102.191 1100.28 101.359C1098.79 100.531 1097.57 99.2924 1096.77 97.7909C1095.91 96.2345 1095.47 94.4091 1095.47 92.3148C1095.47 90.1881 1095.91 88.3496 1096.77 86.8145C1097.58 85.3254 1098.8 84.0979 1100.28 83.2761C1101.81 82.444 1103.53 82.0203 1105.27 82.0461C1107 82.0177 1108.71 82.4418 1110.22 83.2761C1111.69 84.1053 1112.9 85.3316 1113.7 86.8145C1114.56 88.3496 1115 90.1843 1115 92.3148C1115 94.4054 1114.57 96.2307 1113.7 97.7909Z" fill="#00598E"/>
<path d="M1161.17 65.6854V83.4615H1138.88V65.6854H1130.88V108.739H1138.88V90.2855H1161.17V108.739H1169.18V65.6854H1161.17Z" fill="#00598E"/>
<path d="M350.106 38H345V227.836H350.106V38Z" fill="#010101"/>
<path fill-rule="evenodd" clip-rule="evenodd" d="M113.854 1.44529C101.119 3.37548 88.8721 6.97937 77.2256 12.491C52.8828 24.0097 33.6606 41.2416 19.559 64.1866L19.5309 64.2353C7.22079 84.2074 3.69769e-05 108.306 3.69769e-05 133.43C-0.0181298 157.55 6.65806 181.204 19.2872 201.763C43.5888 243.406 96.3516 275.575 158.062 264.353C218.407 253.377 265.098 201.511 267.111 137.403C267.904 112.153 261.979 88.4797 249.286 66.598C236.594 44.7163 218.973 27.8426 196.685 15.8608C196.825 16.1262 197.028 16.3531 197.277 16.5217C205.843 22.9984 213.489 30.6057 220.008 39.1354C238.927 63.7411 250.085 91.3684 252.13 122.469C252.768 131.968 252.207 141.511 250.46 150.871C247.233 168.095 240.227 183.634 229.44 197.487C216.926 213.599 201.193 225.624 182.5 233.723C160.343 243.323 137.303 246.543 113.464 242.112C86.2834 237.057 64.1169 223.452 46.783 201.975C31.5317 183.353 23.2538 159.32 23.2538 133.441C23.2538 107.418 31.1025 83.5128 46.4981 64.8456C50.8011 59.3901 55.6107 54.3529 60.8627 49.801C80.0505 33.2625 102.295 24.2306 127.596 22.7054C137.584 22.0953 147.608 22.89 157.374 25.0662C177.872 29.623 195.779 39.1073 210.798 53.7569C230.155 72.6151 241.222 95.5901 244.049 122.465C245.113 132.574 244.626 142.637 242.86 152.653C240.322 167.153 234.878 180.992 226.854 193.339C225.667 195.176 224.401 196.961 223.135 198.746C222.549 199.573 221.962 200.4 221.384 201.232L221.519 201.318C221.801 200.99 222.086 200.665 222.373 200.338L222.373 200.337C222.848 199.796 223.325 199.253 223.789 198.697C239.722 179.769 247.73 157.824 248.576 133.213C248.932 122.815 247.839 112.527 245.657 102.354C242.483 87.5642 237.111 73.5998 229.71 60.418C220.84 44.6133 209.611 30.8081 194.938 19.9796C178.567 7.89485 160.17 1.33671 139.875 0.187215C137.577 0.062405 135.279 0 132.982 0C126.579 0.000902305 120.185 0.484033 113.854 1.44529ZM196.017 130.575C202.32 131.923 207.165 134.219 210.555 137.464C213.945 140.712 215.64 144.531 215.64 148.924C215.643 152.381 214.551 155.744 212.365 159.013C210.185 162.283 207.2 164.895 203.412 166.851C199.625 168.807 194.958 170.011 189.411 170.465C185.931 170.743 177.536 170.921 164.227 170.998L129.025 171.021H101.801L175.904 95C181.336 95.0923 185.575 95.3257 188.62 95.7002C192.641 96.1994 196.239 97.2429 199.414 98.8304C202.494 100.342 205.204 102.509 207.355 105.179C209.479 107.824 210.541 110.788 210.541 114.072C210.544 117.632 209.24 120.901 206.631 123.878C204.022 126.855 200.484 129.087 196.017 130.575ZM179.709 107.867C178.451 107.764 175.748 107.693 171.624 107.654L153.973 125.202H163.563C171.699 125.197 176.755 125.107 178.73 124.932C182.311 124.617 185.123 123.708 187.166 122.204C189.209 120.7 190.231 118.72 190.231 116.264C190.232 113.911 189.349 112.001 187.582 110.533C185.815 109.065 183.191 108.177 179.709 107.867ZM181.22 157.71C185.01 157.293 188.097 156.279 190.48 154.669L190.489 154.665C192.864 153.058 194.051 150.905 194.051 148.207C194.05 145.929 193.129 143.994 191.29 142.403C189.453 140.807 186.795 139.65 183.317 138.932C179.839 138.214 172.3 137.855 160.699 137.855H141.489L121.666 158.198L163.73 158.185C172.919 158.181 178.749 158.023 181.22 157.71ZM52 170.573V95.4474H75.8647L105.361 126.269L134.864 95.4474H158.721L105.897 149.109L71.3077 116.636V170.573H52ZM234 132.5C234 188.005 189.005 233 133.5 233C77.9954 233 33 188.005 33 132.5C33 76.9954 77.9954 32 133.5 32C189.005 32 234 76.9954 234 132.5ZM236 132.5C236 189.109 190.109 235 133.5 235C76.8908 235 31 189.109 31 132.5C31 75.8908 76.8908 30 133.5 30C190.109 30 236 75.8908 236 132.5Z" fill="url(#paint0_linear_295_443)"/>
<defs>
<linearGradient id="paint0_linear_295_443" x1="293.5" y1="123.5" x2="-47" y2="123.5" gradientUnits="userSpaceOnUse">
<stop stop-color="#3E424B"/>
<stop offset="1" stop-color="#005891"/>
</linearGradient>
</defs>
</svg>
