<svg width="267" height="267" viewBox="0 0 267 267" fill="none" xmlns="http://www.w3.org/2000/svg">
<g clip-path="url(#clip0_207_399)">
<path fill-rule="evenodd" clip-rule="evenodd" d="M113.854 1.44529C101.119 3.37548 88.8721 6.97937 77.2256 12.491C52.8828 24.0097 33.6606 41.2416 19.559 64.1866L19.5309 64.2353C7.22079 84.2074 3.69768e-05 108.306 3.69768e-05 133.43C-0.0181298 157.55 6.65806 181.204 19.2872 201.763C43.5888 243.406 96.3516 275.575 158.062 264.353C218.407 253.377 265.098 201.511 267.111 137.403C267.904 112.153 261.979 88.4797 249.286 66.598C236.594 44.7163 218.973 27.8426 196.685 15.8608C196.825 16.1262 197.028 16.3531 197.277 16.5217C205.843 22.9984 213.489 30.6057 220.008 39.1354C238.927 63.7411 250.085 91.3684 252.13 122.469C252.768 131.968 252.207 141.511 250.46 150.871C247.233 168.095 240.227 183.634 229.44 197.487C216.926 213.599 201.193 225.624 182.5 233.723C160.343 243.323 137.303 246.543 113.464 242.112C86.2834 237.057 64.1169 223.452 46.783 201.975C31.5317 183.353 23.2538 159.32 23.2538 133.441C23.2538 107.418 31.1025 83.5128 46.4981 64.8456C50.8011 59.3901 55.6107 54.3529 60.8627 49.801C80.0505 33.2625 102.295 24.2306 127.596 22.7054C137.584 22.0953 147.608 22.89 157.374 25.0662C177.872 29.623 195.779 39.1073 210.798 53.7569C230.155 72.6151 241.222 95.5901 244.049 122.465C245.113 132.574 244.626 142.637 242.86 152.653C240.322 167.153 234.878 180.992 226.854 193.339C225.667 195.176 224.401 196.961 223.135 198.746C222.549 199.573 221.962 200.4 221.384 201.232L221.519 201.318C221.801 200.99 222.086 200.665 222.373 200.338C222.848 199.797 223.325 199.253 223.789 198.697C239.722 179.769 247.73 157.824 248.576 133.213C248.932 122.815 247.839 112.527 245.657 102.354C242.483 87.5642 237.111 73.5998 229.71 60.418C220.84 44.6133 209.611 30.8081 194.938 19.9796C178.567 7.89485 160.17 1.33671 139.875 0.187215C137.577 0.062405 135.279 0 132.982 0C126.579 0.000902305 120.185 0.484033 113.854 1.44529ZM196.017 130.575C202.32 131.923 207.165 134.219 210.555 137.464C213.945 140.712 215.64 144.531 215.64 148.924C215.643 152.381 214.551 155.744 212.365 159.013C210.185 162.283 207.2 164.895 203.412 166.851C199.625 168.807 194.958 170.011 189.411 170.465C185.931 170.743 177.536 170.921 164.227 170.998L129.025 171.021H101.801L175.904 95C181.336 95.0923 185.575 95.3257 188.62 95.7002C192.641 96.1994 196.239 97.2429 199.414 98.8304C202.494 100.342 205.204 102.509 207.355 105.179C209.479 107.824 210.541 110.788 210.541 114.072C210.544 117.632 209.24 120.901 206.631 123.878C204.022 126.855 200.484 129.087 196.017 130.575ZM179.709 107.867C178.451 107.764 175.748 107.693 171.624 107.654L153.973 125.202H163.563C171.699 125.197 176.755 125.107 178.73 124.932C182.311 124.617 185.123 123.708 187.166 122.204C189.209 120.7 190.231 118.72 190.231 116.264C190.232 113.911 189.349 112.001 187.582 110.533C185.815 109.065 183.191 108.177 179.709 107.867ZM181.22 157.71C185.01 157.293 188.097 156.279 190.48 154.669L190.489 154.665C192.864 153.058 194.051 150.905 194.051 148.207C194.05 145.929 193.129 143.994 191.29 142.403C189.453 140.807 186.795 139.65 183.317 138.932C179.839 138.214 172.3 137.855 160.699 137.855H141.489L121.666 158.198L163.73 158.185C172.919 158.181 178.749 158.023 181.22 157.71ZM52 170.573V95.4474H75.8647L105.361 126.269L134.864 95.4474H158.721L105.897 149.109L71.3077 116.636V170.573H52ZM234 132.5C234 188.005 189.005 233 133.5 233C77.9954 233 33 188.005 33 132.5C33 76.9954 77.9954 32 133.5 32C189.005 32 234 76.9954 234 132.5ZM236 132.5C236 189.109 190.109 235 133.5 235C76.8908 235 31 189.109 31 132.5C31 75.8908 76.8908 30 133.5 30C190.109 30 236 75.8908 236 132.5Z" fill="url(#paint0_linear_207_399)"/>
</g>
<defs>
<linearGradient id="paint0_linear_207_399" x1="293.5" y1="123.5" x2="-47" y2="123.5" gradientUnits="userSpaceOnUse">
<stop stop-color="#3E424B"/>
<stop offset="1" stop-color="#005891"/>
</linearGradient>
<clipPath id="clip0_207_399">
<rect width="267" height="267" fill="white"/>
</clipPath>
</defs>
</svg>
